<svg width="26" height="26" viewBox="0 0 26 26" fill="none" xmlns="http://www.w3.org/2000/svg">
<path d="M13 25C19.6275 25 25 19.6275 25 13C25 6.37259 19.6275 1 13 1C6.37258 1 1 6.37259 1 13C1 14.9163 1.44913 16.7275 2.24788 18.3344C3.07988 20.0081 1.00096 25 1.00096 25H13Z" fill="black" stroke="black" stroke-width="2" stroke-linecap="round" stroke-linejoin="round"/>
<path d="M7 11C7 10.4477 7.44772 10 8 10H18C18.5523 10 19 10.4477 19 11C19 11.5523 18.5523 12 18 12H8C7.44772 12 7 11.5523 7 11Z" fill="white"/>
<path d="M7 16C7 15.4477 7.44772 15 8 15H11C11.5523 15 12 15.4477 12 16C12 16.5523 11.5523 17 11 17H8C7.44772 17 7 16.5523 7 16Z" fill="white"/>
</svg>
