<?xml version="1.0" standalone="no"?>
<!DOCTYPE svg PUBLIC "-//W3C//DTD SVG 20010904//EN"
 "http://www.w3.org/TR/2001/REC-SVG-20010904/DTD/svg10.dtd">
<svg version="1.0" xmlns="http://www.w3.org/2000/svg"
 width="41.000000pt" height="38.000000pt" viewBox="0 0 41.000000 38.000000"
 preserveAspectRatio="xMidYMid meet">
<metadata>
Created by potrace 1.16, written by Peter Selinger 2001-2019
</metadata>
<g transform="translate(0.000000,38.000000) scale(0.100000,-0.100000)"
fill="#000000" stroke="none">
<path d="M113 313 c-24 -8 -43 -20 -43 -26 1 -34 14 -57 32 -57 20 0 20 -4 14
-80 l-7 -80 97 0 97 0 -7 76 c-7 71 -6 76 14 81 11 3 20 10 20 17 0 6 3 21 6
32 5 18 -1 24 -42 38 -45 15 -48 15 -61 -4 -18 -26 -39 -25 -55 0 -15 23 -11
23 -65 3z m204 -36 c3 -6 -6 -20 -20 -31 -25 -21 -26 -25 -20 -89 l6 -67 -77
0 -77 0 7 74 c6 69 5 74 -14 80 -32 10 -35 35 -7 48 20 9 31 8 58 -7 27 -14
38 -15 55 -6 12 6 22 16 22 21 0 11 58 -8 67 -23z"/>
</g>
</svg>
