<?xml version="1.0" encoding="utf-8"?>
<svg xmlns="http://www.w3.org/2000/svg" viewBox="0 0 500 500" xmlns:bx="https://boxy-svg.com">
  <defs>
    <bx:export>
      <bx:file format="svg" path="top.svg" width="24" height="24" normalization="{&quot;removeBoxySVGMetadata&quot;:true,&quot;removeForeignMetadata&quot;:true,&quot;removeAnimations&quot;:true}"/>
    </bx:export>
  </defs>
  <path d="M 178.843 32.17 C 178.785 32.17 178.732 32.19 178.656 32.212 C 178.548 32.212 178.414 32.232 178.286 32.252 C 178.063 32.288 177.859 32.37 177.655 32.474 C 177.578 32.49 177.508 32.51 177.45 32.53 L 86.958 78.492 C 86.161 78.892 85.529 79.575 85.139 80.419 L 13.495 245.311 C 12.664 247.238 13.367 249.545 15.111 250.547 L 99.776 298.754 L 99.776 298.774 C 99.796 298.774 99.815 298.774 99.833 298.794 C 100.242 299.016 100.668 299.154 101.111 299.196 L 101.206 299.196 C 101.652 299.258 102.112 299.196 102.54 299.052 C 102.577 299.052 102.616 299.036 102.635 299.016 C 103.076 298.872 103.485 298.63 103.842 298.333 C 103.861 298.313 103.875 298.293 103.875 298.27 C 104.174 298.008 104.435 297.711 104.658 297.367 L 132.15 250.484 L 132.15 464.669 C 132.15 465.133 132.222 465.595 132.387 466.036 C 132.445 466.196 132.521 466.338 132.593 466.478 C 132.725 466.78 132.891 467.038 133.095 467.3 C 133.186 467.424 133.301 467.542 133.409 467.64 C 133.652 467.859 133.912 468.066 134.187 468.203 C 134.302 468.281 134.41 468.343 134.544 468.406 C 134.948 468.585 135.394 468.688 135.84 468.688 L 374.845 468.688 C 375.177 468.688 375.495 468.645 375.81 468.543 C 375.829 468.543 375.846 468.543 375.866 468.523 C 375.994 468.488 376.141 468.446 376.275 468.383 C 376.294 468.363 376.294 468.363 376.312 468.363 C 376.422 468.301 376.531 468.246 376.645 468.184 C 376.735 468.121 376.849 468.046 376.958 467.964 C 376.977 467.964 376.997 467.941 377.016 467.922 C 377.072 467.882 377.125 467.824 377.2 467.762 C 377.258 467.702 377.329 467.64 377.387 467.582 L 377.552 467.402 C 377.59 467.342 377.646 467.28 377.704 467.218 C 377.738 467.162 377.794 467.1 377.833 467.018 C 377.889 466.94 377.941 466.858 377.98 466.78 C 378.017 466.74 378.056 466.678 378.075 466.616 C 378.145 466.478 378.203 466.338 378.259 466.196 L 378.279 466.174 C 378.312 466.076 378.331 465.994 378.368 465.897 C 378.388 465.814 378.426 465.712 378.445 465.635 L 378.445 465.615 C 378.482 465.455 378.502 465.313 378.516 465.153 C 378.535 464.993 378.554 464.833 378.554 464.669 L 378.554 251.146 L 403.505 296.206 C 403.544 296.283 403.6 296.365 403.653 296.428 C 403.672 296.487 403.709 296.565 403.748 296.627 C 403.786 296.667 403.823 296.69 403.856 296.725 C 404.118 297.049 404.399 297.311 404.731 297.531 C 404.806 297.567 404.878 297.629 404.954 297.671 C 405.325 297.871 405.714 298.008 406.122 298.071 C 406.18 298.091 406.231 298.091 406.308 298.113 C 406.735 298.153 407.181 298.113 407.604 297.993 C 407.623 297.993 407.66 297.973 407.699 297.973 C 407.994 297.871 408.292 297.753 408.573 297.567 C 408.702 297.491 408.83 297.387 408.944 297.289 L 408.961 297.289 L 408.961 297.269 C 409.033 297.229 409.09 297.167 409.148 297.109 L 486.613 231.243 C 488.039 230.035 488.447 227.908 487.616 226.203 L 415.933 80.239 C 415.559 79.478 414.952 78.876 414.225 78.492 L 323.713 32.534 C 323.641 32.514 323.546 32.494 323.47 32.474 C 323.175 32.354 322.857 32.272 322.543 32.232 C 322.415 32.217 322.303 32.197 322.174 32.197 C 321.765 32.197 321.356 32.252 320.968 32.397 C 320.877 32.437 320.782 32.474 320.687 32.534 C 320.503 32.596 320.336 32.674 320.169 32.776 C 290.118 52.947 264.856 59.57 242.388 57.983 C 219.924 56.4 200.075 46.505 181.061 32.818 L 181.078 32.838 C 180.836 32.654 180.579 32.514 180.3 32.417 C 180.3 32.417 180.281 32.417 180.281 32.397 L 180.262 32.397 C 179.854 32.252 179.406 32.175 178.985 32.197 C 178.927 32.175 178.89 32.175 178.832 32.175 L 178.843 32.17 Z M 322.367 40.741 L 409.964 85.191 L 479.585 227.004 L 407.699 288.155 L 378.554 235.555 L 378.554 180.826 C 378.554 179.762 378.164 178.739 377.462 177.995 C 376.774 177.233 375.829 176.814 374.845 176.814 C 373.862 176.792 372.917 177.233 372.21 177.98 C 371.507 178.739 371.117 179.762 371.117 180.826 L 371.117 460.657 L 139.568 460.657 L 139.568 236.88 L 139.568 236.479 L 139.568 180.826 C 139.568 179.762 139.178 178.739 138.476 177.975 C 137.768 177.233 136.823 176.792 135.84 176.814 C 134.858 176.814 133.912 177.233 133.223 177.995 C 132.521 178.739 132.131 179.762 132.15 180.826 L 132.15 235.517 L 100.203 289.969 L 21.717 245.253 L 91.3 85.16 L 178.709 40.787 C 197.852 54.293 218.463 64.348 241.926 66.018 C 265.653 67.703 292.05 60.694 322.364 40.75 L 322.367 40.741 Z" style="stroke-width: 15px; stroke: rgb(0, 0, 0); transform-box: fill-box; transform-origin: 50% 50%;" transform="matrix(0.999983, 0.005762, -0.005762, 0.999983, 0, 0)"/>
</svg>