<?xml version="1.0" encoding="UTF-8"?>
<svg version="1.1" xmlns="http://www.w3.org/2000/svg" width="532" height="512">
<path d="M0 0 C6.69335621 4.0436152 8.77429639 9.81096985 11.25 16.875 C15.83047806 29.88951901 23.66779038 40.98231501 32.5625 51.4375 C33.0265625 52.0459375 33.490625 52.654375 33.96875 53.28125 C42.50601648 64.20100945 56.15746311 72.27835118 69.5625 75.4375 C85.35050521 77.28131278 98.71532702 73.58594943 111.47265625 63.9375 C127.82033645 50.71055268 140.02485247 33.08198133 147.25 13.375 C149.5320771 7.17535721 151.71415234 3.57376074 157.0625 -0.4375 C167.70387789 -3.85794289 177.40029601 -0.80177751 187.39453125 3.17578125 C188.7256354 3.6869626 190.05751458 4.19612958 191.39009094 4.70346069 C194.23956034 5.79283642 197.08346549 6.89526761 199.92364502 8.00863647 C204.44012361 9.77890939 208.96768675 11.51946212 213.49755859 13.25512695 C218.26147804 15.08196177 223.02462328 16.91068658 227.78393555 18.74949646 C244.14338104 25.06893513 260.56231692 31.22659803 276.98934937 37.36776733 C281.59023376 39.08802973 286.18944094 40.8127421 290.78833008 42.53833008 C292.24381253 43.08419807 293.69930253 43.63004596 295.15480042 44.1758728 C297.25171676 44.96224575 299.34854514 45.74884839 301.44506645 46.53627396 C307.83357314 48.93563111 314.2235054 51.32785255 320.64746094 53.63110352 C321.53585663 53.95105789 322.42425232 54.27101227 323.33956909 54.60066223 C324.90504528 55.16186501 326.47279309 55.71680172 328.04348755 56.26322937 C335.06736102 58.78177056 339.25065984 62.25871978 343.5625 68.1875 C346.01131758 76.14615712 344.44391077 84.65281235 342.79003906 92.6472168 C342.60139282 93.60157623 342.41274658 94.55593567 342.21838379 95.53921509 C341.59897426 98.65729557 340.96418114 101.77199489 340.328125 104.88671875 C339.88870237 107.07131592 339.44989006 109.25603594 339.01165771 111.44087219 C338.09385062 116.0037731 337.16831902 120.56502034 336.23730469 125.12524414 C335.04761248 130.95595825 333.87792405 136.79047523 332.71405411 142.62639141 C331.81291203 147.13288952 330.90089577 151.63713445 329.98564911 156.14078712 C329.55008591 158.29098717 329.11793676 160.44188184 328.68933868 162.59348106 C328.08813494 165.6033513 327.47224208 168.60985855 326.85253906 171.6159668 C326.6799054 172.49564621 326.50727173 173.37532562 326.32940674 174.28166199 C324.90296812 181.07890322 323.00805596 187.69062424 317.4921875 192.2578125 C312.9207921 195.15456226 307.92233906 196.18172102 302.6875 197.3125 C301.62700439 197.55589111 300.56650879 197.79928223 299.47387695 198.05004883 C292.90720296 199.53857004 286.31676323 200.90921159 279.72265625 202.26953125 C278.60482758 202.5015625 278.60482758 202.5015625 277.4644165 202.73828125 C273.77292766 203.50425243 270.07993944 204.25880282 266.38134766 204.98974609 C265.01848648 205.26756925 263.65569034 205.5457117 262.29296875 205.82421875 C261.09051514 206.06358154 259.88806152 206.30294434 258.64916992 206.54956055 C255.40693739 207.48225055 253.87432563 208.00403921 251.5625 210.4375 C251.21323927 213.14387321 251.12765478 215.40982059 251.23217773 218.10772705 C251.25621123 219.29493438 251.25621123 219.29493438 251.28073025 220.50612569 C251.34618252 223.15169832 251.44885755 225.79357361 251.5625 228.4375 C251.60047321 229.33845366 251.63844643 230.23940733 251.67757034 231.16766262 C251.99801043 238.35389545 252.42030337 245.53334247 252.84765625 252.71386719 C252.98604768 255.10441462 253.12396327 257.49498963 253.26144409 259.8855896 C253.55645557 264.99936857 253.85461155 270.11295065 254.15524292 275.22640228 C254.59110892 282.64311351 255.02035828 290.06019296 255.44754469 297.47740856 C256.14282397 309.54829507 256.84175813 321.61896655 257.54394531 333.68945312 C257.60674822 334.76906519 257.60674822 334.76906519 257.67081988 335.8704876 C258.13759644 343.89362698 258.60495741 351.91673225 259.07263184 359.93981934 C259.24212763 362.84789914 259.41160096 365.75598025 259.58105469 368.6640625 C259.64378159 369.74051203 259.64378159 369.74051203 259.70777571 370.83870801 C260.40840947 382.86471471 261.10404904 394.89100505 261.79603863 406.91751218 C262.25875749 414.95516997 262.72761784 422.99243424 263.20100403 431.02947187 C263.49564291 436.0539716 263.7849492 441.07876859 264.07287979 446.10365677 C264.20610499 448.41019329 264.34145426 450.71660841 264.47924423 453.02287674 C265.14415272 464.17030547 265.70556509 475.32029987 265.89282227 486.48712158 C265.92151114 487.37419194 265.95020002 488.2612623 265.97975826 489.17521358 C266.03048032 496.12173142 264.74425851 501.19427109 259.79487997 506.23926979 C253.20036491 511.44277825 246.40216937 511.28181826 238.32261658 511.19267273 C236.8851069 511.19887745 235.44760657 511.20769978 234.01012713 511.21889812 C230.07785355 511.24192866 226.14647599 511.22773529 222.21422136 511.20718896 C217.96669374 511.19152217 213.71929871 511.21049328 209.4717865 511.22499084 C201.15829821 511.2477946 192.84514654 511.23835364 184.53166502 511.21748998 C177.77467676 511.20119482 171.01778026 511.19700915 164.26077461 511.20145607 C163.29847809 511.20208675 162.33618157 511.20271742 161.34472455 511.20336721 C159.38974819 511.20471328 157.43477184 511.20609286 155.47979552 511.20750556 C137.1562549 511.21943713 118.83289867 511.19538915 100.50940002 511.15848748 C84.79062522 511.12759041 69.07206261 511.12522651 53.35327148 511.14428711 C35.09302445 511.16640403 16.83289632 511.17253943 -1.42735666 511.15196449 C-3.37476788 511.14980158 -5.32217912 511.14765248 -7.26959038 511.14551735 C-8.22772016 511.14445098 -9.18584995 511.14338462 -10.17301397 511.14228594 C-16.9215532 511.13581927 -23.67003119 511.14057919 -30.41856575 511.14954185 C-38.6432071 511.16008228 -46.86759968 511.15256108 -55.0921951 511.12208607 C-59.28770286 511.10696791 -63.4828181 511.09978008 -67.6783371 511.11427689 C-71.5207802 511.12731435 -75.36244649 511.11717364 -79.20479994 511.08871815 C-80.59294276 511.08245074 -81.98115461 511.08455517 -83.36926449 511.09598859 C-91.33582832 511.15622642 -97.28185853 510.83640891 -103.4375 505.4375 C-107.96817438 500.90682562 -109.40600145 496.05722588 -109.4825983 489.68668652 C-109.39612663 488.30597414 -109.2958698 486.92607951 -109.18434143 485.54716492 C-109.10514555 484.38817831 -109.10514555 484.38817831 -109.02434975 483.20577782 C-108.84261812 480.61513439 -108.64122192 478.0265018 -108.4375 475.4375 C-108.29746571 473.5761273 -108.15761344 471.7147409 -108.01792717 469.85334206 C-107.5299794 463.46137323 -107.00912171 457.07219891 -106.48803711 450.68286133 C-106.29063805 448.24153815 -106.0934549 445.8001975 -105.89646912 443.35884094 C-105.47478793 438.13708263 -105.05183733 432.9154288 -104.62785149 427.69385719 C-103.95662542 419.42594208 -103.28994725 411.15766302 -102.62391663 402.889328 C-102.39504047 400.04868968 -102.16613196 397.20805396 -101.93721104 394.36741924 C-101.88003396 393.65791134 -101.82285688 392.94840345 -101.76394717 392.21739531 C-101.11580955 384.17554607 -100.46666888 376.13377789 -99.81713867 368.09204102 C-99.75789188 367.35850101 -99.69864508 366.624961 -99.63760293 365.8691925 C-98.67633647 353.96895144 -97.71213435 342.06894948 -96.74725633 330.16900078 C-95.75294982 317.90468595 -94.76328236 305.6400022 -93.77748877 293.37500018 C-93.17123629 285.83433119 -92.56122843 278.29398538 -91.94623769 270.75402393 C-91.4749449 264.97147619 -91.00996138 259.18843418 -90.54723549 253.40519524 C-90.35744767 251.04568857 -90.16562746 248.68634429 -89.97154999 246.32718658 C-88.7319897 231.48174479 -88.7319897 231.48174479 -88.07374573 216.60209656 C-88.04376275 215.46458293 -88.01377977 214.3270693 -87.98288822 213.15508556 C-88.18333399 210.33274636 -88.18333399 210.33274636 -90.28642559 208.60113049 C-92.99585553 207.13545581 -95.42230449 206.61828849 -98.45605469 206.07470703 C-99.67121765 205.85082306 -100.88638062 205.62693909 -102.1383667 205.39627075 C-102.78506065 205.28226048 -103.43175461 205.1682502 -104.09804535 205.05078506 C-106.13585636 204.69063231 -108.17048501 204.31584586 -110.20489502 203.9369812 C-115.98767234 202.86285049 -121.77521778 201.81555903 -127.56445312 200.77685547 C-131.11202194 200.13929952 -134.65621035 199.48508248 -138.19895172 198.82125473 C-139.54202648 198.57318912 -140.88630864 198.33156284 -142.23177338 198.09680557 C-151.1159525 196.54619778 -158.22703312 194.92228797 -164.52307129 188.21604919 C-166.78053186 184.939633 -167.53834545 182.22993635 -168.43066406 178.35620117 C-168.59326847 177.66135463 -168.75587288 176.96650808 -168.92340469 176.25060558 C-169.44642478 173.98324345 -169.94540791 171.71176496 -170.4375 169.4375 C-170.60263596 168.67889805 -170.76777191 167.9202961 -170.93791199 167.13870621 C-172.1882704 161.3481077 -173.37360525 155.54491687 -174.546875 149.73828125 C-174.73076027 148.83141256 -174.91464554 147.92454388 -175.10410309 146.99019432 C-176.07440681 142.20385415 -177.04032283 137.41665406 -178.00244141 132.62866211 C-178.98874232 127.72479558 -179.99024433 122.82416226 -180.99517441 117.92408466 C-181.77403458 114.11221067 -182.5415752 110.29811878 -183.30615997 106.48335838 C-183.67034696 104.67624664 -184.03866361 102.86996144 -184.41143036 101.06459999 C-190.03171905 73.78725067 -190.03171905 73.78725067 -184.7325592 65.05490112 C-179.25883852 58.21876425 -170.44012654 55.88150796 -162.53515625 52.9921875 C-161.1268431 52.46853328 -159.71888817 51.94391482 -158.31126404 51.41841125 C-155.2915927 50.2933165 -152.26961144 49.17476203 -149.24560547 48.06137085 C-144.45161393 46.29626348 -139.66291307 44.51711408 -134.875 42.7355957 C-129.01761565 40.55711243 -123.1590235 38.38193882 -117.29890251 36.21082783 C-106.26116232 32.12080057 -95.23523786 27.99979922 -84.21484375 23.86328125 C-83.39836931 23.55682678 -82.58189487 23.25037231 -81.74067879 22.93463135 C-77.70618382 21.42015659 -73.67187432 19.90518855 -69.63766479 18.38995361 C-62.85172498 15.84139637 -56.06428791 13.29683259 -49.27690315 10.75212669 C-46.09144345 9.55781067 -42.90607642 8.36324763 -39.72070312 7.16870117 C-37.9496521 6.50806168 -37.9496521 6.50806168 -36.14282227 5.83407593 C-33.48494859 4.83229467 -30.83629652 3.81562411 -28.19116211 2.78140259 C-27.47859001 2.50601056 -26.76601791 2.23061853 -26.03185272 1.94688129 C-24.66707628 1.41907657 -23.30467467 0.88507061 -21.94525909 0.3436079 C-14.59209134 -2.48259746 -7.34639154 -3.13281874 0 0 Z M-30.30273438 46.52270508 C-31.52103439 46.98255295 -32.73933441 47.44240082 -33.99455261 47.91618347 C-35.34014277 48.42973556 -36.68570779 48.94335353 -38.03125 49.45703125 C-39.43608865 49.98913619 -40.84110662 50.52076787 -42.24629211 51.05195618 C-45.24830433 52.18775147 -48.24917645 53.32648971 -51.24917603 54.46759033 C-55.93730319 56.25069251 -60.62786423 58.0273192 -65.3190918 59.80224609 C-66.09854629 60.09716068 -66.87800077 60.39207527 -67.6810751 60.69592667 C-69.25999229 61.2933025 -70.83891934 61.89065227 -72.41785622 62.48797607 C-74.80093116 63.38973173 -77.18377218 64.29210325 -79.5665741 65.19458008 C-94.10907777 70.70087846 -108.67467379 76.14370513 -123.25 81.5625 C-124.34779785 81.9708609 -125.4455957 82.3792218 -126.57666016 82.79995728 C-132.52958446 85.01432927 -138.48315109 87.22696165 -144.4375 89.4375 C-143.72877947 97.22608161 -142.27174677 104.78180165 -140.71484375 112.44140625 C-140.44689177 113.77368995 -140.1792839 115.1060429 -139.91200256 116.4384613 C-139.2134512 119.9160708 -138.51028188 123.39273031 -137.80609131 126.86920166 C-137.08599244 130.42850671 -136.37034144 133.98870566 -135.65429688 137.54882812 C-134.25300854 144.51259156 -132.84683146 151.47535948 -131.4375 158.4375 C-115.32664301 161.84134192 -115.32664301 161.84134192 -99.171875 165.02734375 C-97.99496094 165.25486328 -96.81804687 165.48238281 -95.60546875 165.71679688 C-93.28231592 166.16416973 -90.95664272 166.59860799 -88.62890625 167.02148438 C-75.72788154 169.5630292 -64.6910269 174.43953068 -56.8125 185.1875 C-49.49630806 196.12141157 -47.03003789 206.25474903 -47.77842712 219.32554626 C-47.82544736 220.19675863 -47.87246759 221.067971 -47.92091268 221.96558374 C-48.53211204 232.79589602 -49.41531333 243.60514993 -50.29516602 254.41625977 C-50.48276576 256.74926683 -50.67009504 259.08229565 -50.85717773 261.41534424 C-51.25700801 266.3943196 -51.6587159 271.37313843 -52.06195259 276.35183907 C-52.64518829 283.55303821 -53.22498101 290.75451087 -53.80380272 297.956066 C-54.74381191 309.65049954 -55.68631915 321.34473024 -56.63061523 333.03881836 C-57.54613443 344.37664413 -58.4610505 355.71451813 -59.37475586 367.05249023 C-59.43124605 367.75345751 -59.48773624 368.45442478 -59.54593826 369.17663348 C-60.16246786 376.82730368 -60.77868769 384.47799877 -61.39446163 392.12872982 C-61.44852843 392.80048393 -61.50259523 393.47223805 -61.55830042 394.16434835 C-61.77436897 396.84897402 -61.99043106 399.53360021 -62.20644998 402.21822988 C-62.8897495 410.71006351 -63.57448804 419.20177925 -64.2607404 427.69337475 C-64.65259004 432.54449371 -65.04349209 437.3956887 -65.43416595 442.24690247 C-65.61596036 444.50166131 -65.79817272 446.7563865 -65.98082542 449.01107597 C-66.22927806 452.07859147 -66.47627846 455.14622053 -66.72291565 458.21388245 C-66.79616155 459.11365627 -66.86940745 460.0134301 -66.94487292 460.9404698 C-67.01044073 461.75967372 -67.07600855 462.57887764 -67.14356327 463.42290592 C-67.20073869 464.13087505 -67.25791411 464.83884419 -67.31682211 465.56826693 C-67.4214226 467.18847002 -67.4375 468.81392391 -67.4375 470.4375 C28.9225 470.4375 125.2825 470.4375 224.5625 470.4375 C223.71914068 449.21109352 223.71914068 449.21109352 222.60197449 428.00222778 C222.54322836 427.00843235 222.48448223 426.01463692 222.42395592 424.99072647 C222.36316668 423.962859 222.30237743 422.93499153 222.23974609 421.87597656 C222.10968004 419.64711766 221.97983997 417.41824556 221.85020447 415.18936157 C221.57415619 410.44848283 221.29686966 405.70767882 221.01865768 400.96692657 C220.57840614 393.45925706 220.14304535 385.95130861 219.70864868 378.44329834 C219.55902501 375.85826458 219.40939537 373.27323117 219.2597599 370.68819809 C219.18492481 369.39536518 219.11008971 368.10253226 219.03298688 366.77052259 C218.64852856 360.13148771 218.26345203 353.49248879 217.87792969 346.85351562 C217.82006749 345.85704673 217.82006749 345.85704673 217.76103635 344.84044716 C217.1336401 334.03856879 216.50136728 323.23698009 215.86774139 312.4354656 C215.21381274 301.28514769 214.5667117 290.1344439 213.92516959 278.98340583 C213.56606306 272.74616074 213.2037724 266.50913751 212.83375168 260.2725296 C212.48646619 254.41879953 212.14733141 248.56465324 211.8143177 242.71009445 C211.69117924 240.57065414 211.56508468 238.43138146 211.43571663 236.29230881 C210.20294808 215.8574781 209.62000969 197.97734807 223.3046875 181.31640625 C234.24875438 169.30517932 249.51881899 167.31547683 264.6875 164.25 C267.79798286 163.61621386 270.90706988 162.97751843 274.01339722 162.32365417 C275.93400901 161.91972256 277.85711526 161.52743522 279.78274536 161.14814758 C280.64479584 160.96753281 281.50684631 160.78691803 282.39501953 160.60083008 C283.15380402 160.44794022 283.9125885 160.29505035 284.69436646 160.13752747 C286.94077921 159.5032936 286.94077921 159.5032936 288.5625 156.4375 C289.10368705 154.36210965 289.56565229 152.26567711 289.98291016 150.16186523 C290.10999863 149.53065765 290.2370871 148.89945007 290.36802673 148.24911499 C290.7857096 146.16601278 291.19374293 144.08114745 291.6015625 141.99609375 C291.88963472 140.54775063 292.17824696 139.09951482 292.46737671 137.65138245 C293.07152624 134.6183968 293.67129268 131.58459021 294.26757812 128.55004883 C295.03282174 124.65589283 295.80556617 120.76327633 296.58115578 116.87116909 C297.3197029 113.16332104 298.05452931 109.45473867 298.7890625 105.74609375 C299.00043791 104.681302 299.00043791 104.681302 299.21608353 103.59499931 C299.61307129 101.59165261 300.00704954 99.58771023 300.40087891 97.58374023 C300.6257901 96.44251205 300.85070129 95.30128387 301.08242798 94.12547302 C301.62110597 91.56444359 301.62110597 91.56444359 301.5625 89.4375 C300.41359787 89.01219246 300.41359787 89.01219246 299.2414856 88.57829285 C290.19164925 85.22763066 281.14305959 81.873614 272.09511566 78.51784515 C269.69860706 77.62911896 267.30197766 76.74071912 264.90533447 75.85235596 C248.55384387 69.79022912 232.20870758 63.71458035 215.921875 57.48046875 C214.75200043 57.03303818 213.58212585 56.5856076 212.37680054 56.12461853 C206.96225852 54.05172958 201.55138617 51.96984824 196.14501953 49.87573242 C194.23996543 49.14357023 192.3348582 48.41154623 190.4296875 47.6796875 C189.57880554 47.3466008 188.72792358 47.0135141 187.85125732 46.67033386 C187.07389221 46.37290787 186.2965271 46.07548187 185.49560547 45.76904297 C184.82737762 45.50993134 184.15914978 45.2508197 183.47067261 44.9838562 C181.25239567 44.25399115 181.25239567 44.25399115 177.5625 44.4375 C177.26859375 45.03433594 176.9746875 45.63117187 176.671875 46.24609375 C169.32440375 60.45542751 159.70950316 73.01985639 148.5625 84.4375 C147.82644531 85.23542969 147.09039062 86.03335938 146.33203125 86.85546875 C130.11407894 104.01872975 106.12106121 115.26182204 82.5625 116.4375 C53.95918538 117.01240854 29.94130291 105.40632031 9.25830078 86.18505859 C3.34876864 80.47511152 -1.60062311 74.06011378 -6.4375 67.4375 C-7.08332031 66.56222656 -7.72914063 65.68695313 -8.39453125 64.78515625 C-10.93029737 61.25340073 -13.31659391 57.67207737 -15.53515625 53.93359375 C-16.07233276 53.03362671 -16.07233276 53.03362671 -16.62036133 52.11547852 C-17.63925645 50.39400964 -18.64040272 48.66207249 -19.640625 46.9296875 C-20.53007812 45.69605469 -20.53007812 45.69605469 -21.4375 44.4375 C-24.90183024 44.4375 -27.06325008 45.29240235 -30.30273438 46.52270508 Z " fill="#020202" transform="translate(187.4375,1.5625)"/>
</svg>
