<svg width="27" height="26" viewBox="0 0 27 26" fill="none" xmlns="http://www.w3.org/2000/svg">
<path d="M2 9L1 4L9 1C9.24928 1.99853 10.2314 3.37027 11 4C11.7686 4.62973 12.5305 5 13.5 5C14.4695 5 15.2314 4.62973 16 4C16.7686 3.37027 17.7507 1.99853 18 1L26 4L25 9L22.3747 9.57343C22.0456 9.61312 21.7426 9.78327 21.5258 10.0501C21.309 10.3169 21.1942 10.6609 21.2043 11.0137L22 25L13.6618 25L5 25L6.11925 11.0137C6.12935 10.6609 6.0146 10.3169 5.79778 10.0501C5.58095 9.78327 5.27791 9.61312 4.94884 9.57343L2 9Z" fill="black" stroke="#030303" stroke-width="2" stroke-linecap="round" stroke-linejoin="round"/>
</svg>
