<svg width="13" height="13" viewBox="0 0 13 13" fill="none" xmlns="http://www.w3.org/2000/svg">
<path fill-rule="evenodd" clip-rule="evenodd" d="M11.7 1.95C11.7 2.30898 11.409 2.6 11.05 2.6C10.691 2.6 10.4 2.30898 10.4 1.95C10.4 1.59101 10.691 1.3 11.05 1.3C11.409 1.3 11.7 1.59101 11.7 1.95ZM13 1.95C13 3.02695 12.127 3.9 11.05 3.9C10.201 3.9 9.47865 3.35737 9.21096 2.6H0.65C0.291015 2.6 0 2.30898 0 1.95C0 1.59101 0.291015 1.3 0.65 1.3H9.21096C9.47865 0.542623 10.201 0 11.05 0C12.127 0 13 0.873044 13 1.95ZM1.3 6.5C1.3 6.85899 1.59102 7.15 1.95 7.15C2.30898 7.15 2.6 6.85899 2.6 6.5C2.6 6.14102 2.30898 5.85 1.95 5.85C1.59102 5.85 1.3 6.14102 1.3 6.5ZM0 6.5C0 7.57696 0.873044 8.45 1.95 8.45C2.79904 8.45 3.52135 7.90738 3.78904 7.15H12.35C12.709 7.15 13 6.85899 13 6.5C13 6.14102 12.709 5.85 12.35 5.85H3.78904C3.52135 5.09263 2.79904 4.55 1.95 4.55C0.873044 4.55 0 5.42305 0 6.5ZM11.05 11.7C11.409 11.7 11.7 11.409 11.7 11.05C11.7 10.691 11.409 10.4 11.05 10.4C10.691 10.4 10.4 10.691 10.4 11.05C10.4 11.409 10.691 11.7 11.05 11.7ZM11.05 13C12.127 13 13 12.127 13 11.05C13 9.97305 12.127 9.1 11.05 9.1C10.201 9.1 9.47865 9.64263 9.21096 10.4H0.65C0.291015 10.4 0 10.691 0 11.05C0 11.409 0.291015 11.7 0.65 11.7H9.21096C9.47865 12.4574 10.201 13 11.05 13Z" fill="black"/>
</svg>
