<svg width="15" height="15" viewBox="0 0 15 15" fill="none" xmlns="http://www.w3.org/2000/svg">
<path id="Line 5" d="M3.88388 2.11612C3.39573 1.62796 2.60427 1.62796 2.11612 2.11612C1.62796 2.60427 1.62796 3.39573 2.11612 3.88388L3.88388 2.11612ZM13 14.25C13.6904 14.25 14.25 13.6904 14.25 13V1.75C14.25 1.05964 13.6904 0.5 13 0.5C12.3096 0.5 11.75 1.05964 11.75 1.75V11.75H1.75C1.05964 11.75 0.5 12.3096 0.5 13C0.5 13.6904 1.05964 14.25 1.75 14.25H13ZM2.11612 3.88388L12.1161 13.8839L13.8839 12.1161L3.88388 2.11612L2.11612 3.88388Z" fill="black"/>
</svg>
