<?xml version="1.0" encoding="UTF-8"?>
<svg version="1.1" xmlns="http://www.w3.org/2000/svg" width="1828" height="336">
<path d="M0 0 C16.84162681 13.3843593 27.8246775 32.10259124 31.1015625 53.40234375 C33.93526883 83.47111642 23.94522929 109.9744274 4.95947266 133.12207031 C1.80779292 136.9121543 -1.39273925 140.65845047 -4.6171875 144.38671875 C10.12970523 160.03590702 33.13196848 172.04006154 54.6953125 172.94921875 C62.11678917 172.68925742 67.97470973 170.84452302 73.2578125 165.484375 C77.98395814 159.56533203 79.62666265 153.98353632 79.6612854 146.40115356 C79.669974 145.38278453 79.669974 145.38278453 79.67883813 144.34384239 C79.69576432 142.08220664 79.69870819 139.82077587 79.70166016 137.55908203 C79.71096344 135.93259688 79.72113271 134.30611649 79.73210144 132.67964172 C79.75937035 128.27312284 79.77454164 123.86663588 79.78752947 119.46005487 C79.8031736 114.85157777 79.82995975 110.24316572 79.8555603 105.63473511 C79.90232536 96.91200667 79.93908048 88.18926596 79.97223318 79.46647632 C80.01047061 69.53420056 80.05987654 59.60199017 80.11021733 49.66976953 C80.21350342 29.24212821 80.30130035 8.81445936 80.3828125 -11.61328125 C97.8728125 -11.61328125 115.3628125 -11.61328125 133.3828125 -11.61328125 C133.47334229 10.25836839 133.54692757 32.12986475 133.59006119 54.00165462 C133.61062721 64.15864235 133.63863293 74.31550482 133.68457031 84.47241211 C133.72462154 93.33214631 133.75028855 102.19178973 133.75916648 111.05161196 C133.76435047 115.73652271 133.77640827 120.4211739 133.80573273 125.1060009 C133.8331919 129.52931005 133.84119697 133.95225648 133.83524323 138.37564278 C133.83633 139.98591722 133.84410025 141.59620576 133.8596344 143.20640564 C134.0774401 166.98004893 127.07169664 188.53977725 110.625 206.234375 C94.48039024 221.73207531 74.91042456 229.07177582 52.80981445 228.85961914 C14.01164626 227.62426457 -16.99462881 206.6620267 -45.6171875 182.38671875 C-50.09760806 185.69637615 -54.49531348 189.07150789 -58.78759766 192.62158203 C-88.61131885 217.1381807 -121.67871774 230.85870149 -160.6171875 228.38671875 C-175.23369545 226.64756912 -188.83793614 219.13937474 -199.6171875 209.38671875 C-200.37515625 208.7215625 -201.133125 208.05640625 -201.9140625 207.37109375 C-215.1899856 195.01075155 -224.87821212 176.09331019 -225.79701614 157.80788994 C-225.88905372 153.36671385 -225.86488637 148.92593381 -225.84423828 144.48413086 C-225.84367344 142.77839159 -225.84399216 141.07265183 -225.84512329 139.36691284 C-225.84569495 134.75804556 -225.83397103 130.14928329 -225.81997538 125.54044032 C-225.80743672 120.71581355 -225.80629505 115.89118413 -225.80392456 111.06654358 C-225.79771899 101.94012542 -225.78132068 92.81375543 -225.76122558 83.68735844 C-225.73883782 73.29315836 -225.72786592 62.89895594 -225.71783471 52.50473773 C-225.69695362 31.13203791 -225.66179563 9.75938137 -225.6171875 -11.61328125 C-218.22990648 -11.63854817 -210.84263652 -11.65611285 -203.45532227 -11.66821289 C-200.94001855 -11.67325488 -198.42471778 -11.68008828 -195.90942383 -11.6887207 C-192.30288975 -11.70079219 -188.69639427 -11.70651074 -185.08984375 -11.7109375 C-183.39143089 -11.71867943 -183.39143089 -11.71867943 -181.65870667 -11.72657776 C-180.09720131 -11.72669106 -180.09720131 -11.72669106 -178.50415039 -11.72680664 C-177.58259659 -11.72902725 -176.66104279 -11.73124786 -175.71156311 -11.73353577 C-173.6171875 -11.61328125 -173.6171875 -11.61328125 -172.6171875 -10.61328125 C-172.5189888 -8.49682944 -172.49254202 -6.37704472 -172.49261475 -4.25831604 C-172.4912046 -3.58664758 -172.48979445 -2.91497912 -172.48834157 -2.22295707 C-172.48466986 0.04466055 -172.48803318 2.31221637 -172.49121094 4.57983398 C-172.48981698 6.19920399 -172.48791821 7.81857363 -172.48554993 9.4379425 C-172.48104265 12.93507111 -172.47919661 16.43218795 -172.47908783 19.92931938 C-172.47794944 25.46438964 -172.46512359 30.99939289 -172.44952393 36.53443909 C-172.44695107 37.46804479 -172.44437822 38.40165048 -172.4417274 39.36354727 C-172.43646029 41.2733301 -172.43117481 43.18311289 -172.42587137 45.09289563 C-172.39075926 57.98340848 -172.36420425 70.87383969 -172.36669922 83.7644043 C-172.36829035 92.45204735 -172.3521882 101.13946328 -172.31599259 109.82703358 C-172.29756393 114.42395917 -172.28816203 119.02050579 -172.30046844 123.61746025 C-172.31195036 127.94899403 -172.30009647 132.27985154 -172.27083397 136.6112957 C-172.26422166 138.19545268 -172.2660115 139.77967212 -172.27713203 141.36380386 C-172.33410025 150.21868879 -172.07093133 158.00308404 -166.6171875 165.38671875 C-161.13838405 170.81636476 -155.49090435 173.27916086 -147.78515625 173.44921875 C-125.51127635 172.57034803 -102.9729591 160.20825509 -87.6171875 144.38671875 C-88.13925781 143.83886719 -88.66132813 143.29101562 -89.19921875 142.7265625 C-104.12817484 126.647214 -115.77307385 108.6759899 -121.6171875 87.38671875 C-121.86210937 86.52691406 -122.10703125 85.66710937 -122.359375 84.78125 C-127.43912507 62.89657333 -122.96894362 40.39309941 -111.6171875 21.38671875 C-101.69661505 5.81372711 -87.90956972 -5.13816015 -70.6171875 -11.61328125 C-69.79089844 -11.93167969 -68.96460938 -12.25007812 -68.11328125 -12.578125 C-45.5032637 -19.71986271 -18.73859433 -14.05137318 0 0 Z M-63.6171875 46.38671875 C-69.45062679 53.0488639 -71.11014616 59.44689698 -70.92578125 68.2421875 C-69.67095657 81.02869217 -61.79518652 92.3786126 -53.3671875 101.63671875 C-52.58794922 102.49692627 -52.58794922 102.49692627 -51.79296875 103.37451172 C-50.46667333 104.77702606 -49.04739375 106.09033296 -47.6171875 107.38671875 C-43.926989 107.38671875 -43.53666831 106.738464 -40.9921875 104.19921875 C-30.39008822 93.1285184 -21.11123059 78.89744266 -21.34375 63.109375 C-22.08989361 55.67991649 -25.25972887 49.76779837 -30.765625 44.7890625 C-41.04232568 37.00565418 -53.98327477 38.32111739 -63.6171875 46.38671875 Z " fill="#727272" transform="translate(512.6171875,27.61328125)"/>
<path d="M0 0 C1.701476 1.46306859 3.39024025 2.94112518 5.0625 4.4375 C5.75601562 5.03691406 6.44953125 5.63632812 7.1640625 6.25390625 C28.80804269 26.21638201 38.8840031 59.84275323 40.15039062 88.42089844 C41.65384744 130.45986407 35.91146742 170.81165603 6.47705078 202.96386719 C-10.9768505 221.14677159 -36.90445735 232.01115083 -62 232.640625 C-86.18518457 232.91393343 -86.18518457 232.91393343 -97.9375 229.4375 C-99.08605469 229.10878906 -100.23460937 228.78007812 -101.41796875 228.44140625 C-119.54010219 222.62864647 -134.75457183 211.61737129 -144.9375 195.4375 C-145.5975 194.4475 -146.2575 193.4575 -146.9375 192.4375 C-147.2675 230.7175 -147.5975 268.9975 -147.9375 308.4375 C-170.0475 308.4375 -192.1575 308.4375 -214.9375 308.4375 C-214.9375 200.5275 -214.9375 92.6175 -214.9375 -18.5625 C-192.8275 -18.5625 -170.7175 -18.5625 -147.9375 -18.5625 C-147.6075 -7.0125 -147.2775 4.5375 -146.9375 16.4375 C-144.6275 12.8075 -142.3175 9.1775 -139.9375 5.4375 C-106.31969033 -36.18455007 -38.57489976 -30.74350722 0 0 Z M-131.9375 48.4375 C-148.7220975 67.5492514 -151.24864988 90.76847339 -150.15625 115.19726562 C-148.95074927 133.05374519 -141.9423806 151.23331291 -128.62890625 163.578125 C-116.87816705 173.47734367 -103.95184491 178.03884003 -88.625 177.875 C-87.62315674 177.86742676 -86.62131348 177.85985352 -85.58911133 177.85205078 C-68.26132939 177.46907004 -54.93165862 170.91627109 -42.9375 158.4375 C-32.41724735 145.78863592 -26.57136946 128.86528351 -25.9375 112.4375 C-25.86015625 110.73980469 -25.86015625 110.73980469 -25.78125 109.0078125 C-25.26422759 87.24978608 -29.50644449 64.42993804 -44.84472656 47.9909668 C-56.45248554 36.19162736 -70.88224044 30.41958308 -87.4375 30.1875 C-104.85981574 30.3708928 -119.44235267 36.25039945 -131.9375 48.4375 Z " fill="#727272" transform="translate(1211.9375,27.5625)"/>
<path d="M0 0 C1.76763722 1.5214121 3.51803871 3.06309533 5.25 4.625 C6.53003906 5.76388672 6.53003906 5.76388672 7.8359375 6.92578125 C29.14605933 26.95729577 39.95859301 59.12859504 41.35786438 87.83810425 C41.41286129 90.08779437 41.44068688 92.33561051 41.453125 94.5859375 C41.45882507 95.41598297 41.46452515 96.24602844 41.47039795 97.10122681 C41.47978254 98.85083775 41.48635564 100.60046584 41.49023438 102.35009766 C41.49984888 104.95899481 41.53089723 107.56707121 41.5625 110.17578125 C41.78091636 144.77575491 31.76531086 179.33585733 7.25 204.625 C-13.16467588 224.67899256 -39.07788377 234.0741075 -67.5625 233.9375 C-69.41343262 233.92904053 -69.41343262 233.92904053 -71.30175781 233.92041016 C-90.32027972 233.66706398 -108.24989896 228.94367843 -123.75 217.625 C-124.61238281 217.00753906 -125.47476562 216.39007813 -126.36328125 215.75390625 C-134.92264962 209.29866182 -140.44897779 201.90178886 -145.75 192.625 C-146.08 231.235 -146.41 269.845 -146.75 309.625 C-168.53 309.625 -190.31 309.625 -212.75 309.625 C-212.75 201.715 -212.75 93.805 -212.75 -17.375 C-190.97 -17.375 -169.19 -17.375 -146.75 -17.375 C-146.42 -5.825 -146.09 5.725 -145.75 17.625 C-143.44 13.995 -141.13 10.365 -138.75 6.625 C-103.55455268 -32.14099995 -39.84726636 -31.61068058 0 0 Z M-129.75 49.625 C-130.38679688 50.23988281 -131.02359375 50.85476562 -131.6796875 51.48828125 C-147.01534491 67.40328572 -149.1848238 90.58270369 -148.96484375 111.515625 C-148.54307203 128.50176054 -143.59854943 143.72657978 -133.75 157.625 C-133.0075 158.676875 -132.265 159.72875 -131.5 160.8125 C-120.43712486 172.12680412 -106.38666471 178.75784312 -90.5793457 179.00561523 C-72.64427497 178.97152659 -58.03264167 175.70748059 -44.5 163 C-28.19034565 145.64317683 -24.01675606 123.79566223 -24.50390625 100.72265625 C-25.18107829 82.96457766 -29.56507444 66.7463022 -40.75 52.625 C-41.4925 51.59375 -42.235 50.5625 -43 49.5 C-54.62432773 37.34729374 -69.42350425 31.79825812 -86 31.3125 C-103.64267127 31.66828341 -117.37948739 37.10362748 -129.75 49.625 Z " fill="#717171" transform="translate(1502.75,26.375)"/>
<path d="M0 0 C1.18480957 0.00491455 2.36961914 0.0098291 3.59033203 0.01489258 C27.54924813 0.33511113 50.74476174 8.98507963 67.6875 26.3125 C72.01409086 31.2340533 75.75247668 36.44245336 78.6875 42.3125 C79.0175 30.1025 79.3475 17.8925 79.6875 5.3125 C101.4675 5.3125 123.2475 5.3125 145.6875 5.3125 C145.6875 86.8225 145.6875 168.3325 145.6875 252.3125 C123.9075 252.3125 102.1275 252.3125 79.6875 252.3125 C79.3575 240.4325 79.0275 228.5525 78.6875 216.3125 C75.2225 221.7575 75.2225 221.7575 71.6875 227.3125 C57.51416292 245.46431767 36.07279037 254.98985977 13.6875 258.3125 C-15.78878454 260.00036637 -44.91937619 254.47897489 -67.76171875 234.6484375 C-68.60347656 233.87757813 -69.44523438 233.10671875 -70.3125 232.3125 C-71.16457031 231.54164063 -72.01664063 230.77078125 -72.89453125 229.9765625 C-79.41058474 223.79081587 -84.60767029 216.92994554 -89.3125 209.3125 C-89.66054688 208.74966309 -90.00859375 208.18682617 -90.3671875 207.60693359 C-111.91031459 171.94131483 -113.82247142 124.8677172 -104.56640625 85.078125 C-97.30028499 56.20375925 -81.84654967 31.25599408 -56.3125 15.3125 C-38.66167355 5.00039999 -20.48994621 -0.10097174 0 0 Z M-28.4453125 77.859375 C-42.88059286 97.48135783 -44.87844056 123.40103201 -41.81640625 146.9609375 C-38.57658332 164.42303395 -30.81104945 181.39249426 -16.3125 192.3125 C-0.71011362 202.21189075 16.6866214 205.01642012 34.9140625 201.66015625 C42.7685258 199.63123169 49.22632399 196.17090367 55.6875 191.3125 C56.46738281 190.73886719 57.24726562 190.16523438 58.05078125 189.57421875 C71.10400166 179.04597362 78.02525779 162.53360369 80.6875 146.3125 C80.79835938 145.65765625 80.90921875 145.0028125 81.0234375 144.328125 C84.21003739 121.41905554 80.84230677 96.0809042 66.6875 77.3125 C55.73159285 64.35081908 42.43834312 56.72368174 25.5234375 55.10546875 C3.6723639 53.7348817 -14.38284016 61.06682561 -28.4453125 77.859375 Z " fill="#717171" transform="translate(804.3125,3.6875)"/>
<path d="M0 0 C24.09 0 48.18 0 73 0 C78.62478662 13.49948788 78.62478662 13.49948788 80.61767578 18.82910156 C81.07169266 20.03991394 81.52570953 21.25072632 81.9934845 22.49822998 C82.47746281 23.79568169 82.96140428 25.09314714 83.4453125 26.390625 C83.96970612 27.79151718 84.49430428 29.1923328 85.01908875 30.59307861 C86.13938465 33.58460507 87.25831505 36.57663711 88.37612915 39.5690918 C90.14922413 44.31575191 91.92532408 49.06128406 93.7019043 53.80664062 C95.87757971 59.61855407 98.05255833 65.43072732 100.22667217 71.2432251 C104.33703776 82.23191627 108.45402816 93.21811425 112.57421875 104.203125 C113.03390045 105.42870998 113.03390045 105.42870998 113.50286865 106.67905426 C115.01767332 110.71766909 116.53258181 114.75624496 118.04754639 118.7947998 C120.59403864 125.58329749 123.13969137 132.37210998 125.68537331 139.16091156 C126.87981497 142.34621923 128.07430865 145.5315074 129.26879883 148.71679688 C132.17919922 156.47786458 135.08959961 164.23893229 138 172 C144.42491588 155.7147844 150.4954735 139.30017599 156.57699203 122.88459015 C158.03367115 118.95372564 159.49209789 115.0235097 160.95043945 111.09326172 C162.97861772 105.62697484 165.00645287 100.16056105 167.03365612 94.69391251 C173.35828628 77.63871027 179.6965312 60.58859394 186.05151367 43.54467773 C187.06816381 40.81712449 188.08391999 38.08923927 189.09960938 35.36132812 C190.87058637 30.60580066 192.64462924 25.85142672 194.42080688 21.09783936 C195.09245565 19.29907466 195.76318841 17.49996764 196.43295288 15.70050049 C197.34725521 13.24467394 198.2649636 10.79014783 199.18359375 8.3359375 C199.59167267 7.23641754 199.59167267 7.23641754 200.00799561 6.11468506 C201.88582179 1.11417821 201.88582179 1.11417821 203 0 C205.26991887 -0.09439978 207.54281967 -0.11742226 209.81469727 -0.11352539 C210.88293228 -0.11374443 210.88293228 -0.11374443 211.9727478 -0.1139679 C214.33733112 -0.1132687 216.70183661 -0.10547606 219.06640625 -0.09765625 C220.70165463 -0.09579209 222.33690357 -0.09436818 223.97215271 -0.09336853 C228.28434785 -0.08954318 232.59650952 -0.07971275 236.90869141 -0.06866455 C241.30565946 -0.0584508 245.70263289 -0.05387099 250.09960938 -0.04882812 C258.73308831 -0.03809049 267.36654 -0.02101387 276 0 C269.67943272 17.03036959 269.67943272 17.03036959 266.14453125 25.3515625 C265.80548767 26.15744308 265.46644409 26.96332367 265.11712646 27.79362488 C264.39358205 29.51290843 263.66874111 31.23164688 262.94265747 32.94985962 C260.94940509 37.66798968 258.96743634 42.39086091 256.984375 47.11328125 C256.36708275 48.5824424 256.36708275 48.5824424 255.73731995 50.08128357 C251.30397098 60.64112767 246.92904813 71.22489484 242.5625 81.8125 C242.17003082 82.76384827 241.77756165 83.71519653 241.37319946 84.69537354 C239.3785645 89.53055258 237.38462391 94.36601746 235.39111328 99.20166016 C231.82701239 107.84600934 228.25623129 116.48759928 224.6859436 125.12939453 C222.7096778 129.9129942 220.73373265 134.6967263 218.7578125 139.48046875 C218.36634537 140.4282016 217.97487823 141.37593445 217.57154846 142.35238647 C215.17587145 148.15247252 212.78079941 153.95280801 210.38616943 159.75332642 C202.09132686 179.84587989 193.78819371 199.93490274 185.4574585 220.01260376 C179.79119107 233.66939162 174.14207068 247.3331994 168.5 261 C162.5111581 275.50531606 156.51846961 290.00902629 150.51147461 304.50683594 C149.75845373 306.32443908 149.00568364 308.14214615 148.25317383 309.95996094 C147.21898849 312.45798418 146.18385831 314.95561365 145.1484375 317.453125 C144.84211395 318.19346985 144.53579041 318.9338147 144.22018433 319.69659424 C142.11452237 324.77095526 142.11452237 324.77095526 141 327 C116.91 327 92.82 327 68 327 C71.37469703 316.87590891 71.37469703 316.87590891 72.91015625 313.35180664 C73.25516174 312.55463226 73.60016724 311.75745789 73.95562744 310.93612671 C74.50352936 309.68577133 74.50352936 309.68577133 75.0625 308.41015625 C75.45080994 307.5156778 75.83911987 306.62119934 76.23919678 305.69961548 C77.06494687 303.79820912 77.89227258 301.89748635 78.72106934 299.99740601 C80.01095796 297.03735354 81.29406934 294.07445026 82.57519531 291.1105957 C89.39962662 275.32915902 89.39962662 275.32915902 92.88366699 267.48835754 C94.1827953 264.55928366 95.46413222 261.62241459 96.75 258.6875 C97.20890625 257.6776001 97.6678125 256.6677002 98.140625 255.62719727 C98.5428125 254.70221436 98.945 253.77723145 99.359375 252.82421875 C99.70452148 252.05166748 100.04966797 251.27911621 100.40527344 250.4831543 C101.88648785 244.29865848 99.28248557 238.63193816 96.88671875 233.03515625 C96.56562134 232.26658295 96.24452393 231.49800964 95.91369629 230.70614624 C94.84584493 228.15502362 93.76661063 225.60887805 92.6875 223.0625 C91.92210627 221.23936051 91.15755825 219.41586577 90.39379883 217.59204102 C88.77022546 213.71763452 87.14245191 209.845031 85.51171875 205.97363281 C83.03517376 200.08991717 80.57722881 194.19857303 78.125 188.3046875 C77.72078323 187.3331926 77.31656647 186.36169769 76.90010071 185.36076355 C76.077692 183.38399149 75.25532994 181.40720002 74.43301392 179.4303894 C72.32624208 174.3679529 70.21577679 169.30705694 68.10546875 164.24609375 C62.65274939 151.16796059 57.20318683 138.08851303 51.75384521 125.00897217 C50.50649001 122.01508758 49.25911305 119.02121205 48.01171875 116.02734375 C47.39387512 114.54445862 47.39387512 114.54445862 46.7635498 113.03161621 C43.80812868 105.93866321 40.85149776 98.84621512 37.89453125 91.75390625 C30.15947355 73.20028802 22.42774286 54.64528101 14.72177124 36.07955933 C14.00563666 34.354432 13.28919921 32.62943037 12.57241821 30.90457153 C11.58114927 28.5188192 10.59118454 26.13252962 9.6015625 23.74609375 C9.32423782 23.07923553 9.04691315 22.41237732 8.76118469 21.72531128 C5.77247572 14.50957768 2.90143683 7.25359208 0 0 Z " fill="#727272" transform="translate(1547,9)"/>
<path d="M0 0 C11.105836 9.56400629 19.61215074 20.44390491 23 35 C10.85760278 38.08028936 -1.47347863 40.07871111 -13.8125 42.1875 C-15.96945894 42.55890871 -18.12636049 42.93065083 -20.28320312 43.30273438 C-25.5214801 44.20566762 -30.76045026 45.10448352 -36 46 C-36.45600586 45.32815674 -36.91201172 44.65631348 -37.38183594 43.96411133 C-37.99317383 43.0748999 -38.60451172 42.18568848 -39.234375 41.26953125 C-39.83475586 40.39143799 -40.43513672 39.51334473 -41.05371094 38.60864258 C-46.85181378 30.83735195 -53.96870325 26.27059306 -63 23 C-63.86753906 22.6803125 -64.73507813 22.360625 -65.62890625 22.03125 C-80.83396449 17.35942556 -100.54357561 18.25605096 -114.84375 25.42578125 C-119.95143463 28.63466754 -124.04714613 32.1414384 -126 38 C-126.54140582 44.07084553 -127.08037903 50.31016783 -123.42578125 55.484375 C-118.46668485 60.75596241 -112.61271029 63.35462226 -105.77734375 65.46484375 C-105.08110397 65.68044449 -104.3848642 65.89604523 -103.66752625 66.11817932 C-96.42037582 68.28608974 -89.07791289 69.70891887 -81.63638306 71.02542114 C-78.41841163 71.5960428 -75.20534483 72.19236493 -71.991745 72.78703308 C-70.35595199 73.08963008 -68.71997625 73.39124094 -67.08381653 73.69184875 C1.42181367 86.27923096 1.42181367 86.27923096 19.4375 111.4375 C29.24195901 127.63365647 31.80867814 147.10015728 27.87036133 165.56958008 C25.0015331 177.11134688 19.83782057 187.07126222 12 196 C11.42894531 196.66515625 10.85789063 197.3303125 10.26953125 198.015625 C4.44407299 204.32550303 -2.65398884 208.69092215 -10 213 C-11.41925781 213.83724609 -11.41925781 213.83724609 -12.8671875 214.69140625 C-48.80609905 234.18801124 -97.60670198 232.8509303 -135.89453125 221.91015625 C-159.82412556 214.4681777 -182.5555831 200.35593116 -195.30859375 178.2578125 C-202 165.36951501 -202 165.36951501 -202 160 C-194.43909514 158.71021383 -186.87670711 157.42941442 -179.31323242 156.15478516 C-176.74159475 155.72032013 -174.1703007 155.28381601 -171.59936523 154.84521484 C-167.899165 154.2143282 -164.19778197 153.59083873 -160.49609375 152.96875 C-158.77851112 152.67345398 -158.77851112 152.67345398 -157.02622986 152.37219238 C-146.04682 150.5413954 -146.04682 150.5413954 -141 151 C-139.06640625 153.16015625 -139.06640625 153.16015625 -137.5625 156.0625 C-130.61060697 167.98438673 -119.42645081 173.6213438 -106.73046875 178.171875 C-88.70446706 182.88397409 -65.85802567 182.21013315 -49.3125 173.1875 C-44.69546035 170.11724636 -41.08046915 166.49398466 -39.3984375 161.0546875 C-38.21045435 154.92842145 -38.41381539 149.32439253 -41.57421875 143.83984375 C-52.79138928 129.36508397 -79.37710625 127.28738642 -95.875 123.9375 C-123.96921959 118.17595411 -123.96921959 118.17595411 -134.24609375 115.328125 C-134.92803802 115.13923203 -135.6099823 114.95033905 -136.31259155 114.75572205 C-156.5140036 108.92763963 -175.87671614 98.0128065 -186.33789062 79.28979492 C-194.7947045 63.39482885 -195.35465403 43.7012577 -190.25390625 26.6171875 C-183.8474709 8.13631791 -169.40823456 -5.58718388 -152.25 -14.3125 C-105.64379904 -36.8280656 -40.53272436 -34.11720623 0 0 Z " fill="#727272" transform="translate(202,32)"/>
<path d="M0 0 C0.66 0.33 1.32 0.66 2 1 C-4.6 7.6 -11.2 14.2 -18 21 C-18 16.81116298 -15.67400903 15.0691572 -12.9375 12.1875 C-12.43887451 11.65286133 -11.94024902 11.11822266 -11.42651367 10.56738281 C-7.83096005 6.75766304 -4.0942029 3.27536232 0 0 Z " fill="#A0A0A0" transform="translate(739,25)"/>
<path d="M0 0 C0.66 0.33 1.32 0.66 2 1 C-3.94 6.94 -9.88 12.88 -16 19 C-16 14.76641181 -13.57639709 12.97541337 -10.8125 10.0625 C-10.08836914 9.27456055 -10.08836914 9.27456055 -9.34960938 8.47070312 C-6.43336087 5.34307553 -3.41697361 2.59240228 0 0 Z " fill="#9E9E9E" transform="translate(421,27)"/>
<path d="M0 0 C0.66 0.33 1.32 0.66 2 1 C-2.29 5.29 -6.58 9.58 -11 14 C-11.66 13.67 -12.32 13.34 -13 13 C-4.738041 3.40546697 -4.738041 3.40546697 0 0 Z " fill="#9F9F9F" transform="translate(35,27)"/>
</svg>
