<svg width="110" height="19" viewBox="0 0 110 19" fill="none" xmlns="http://www.w3.org/2000/svg">
<path d="M4.736 16.16C2.464 16.16 0.832 15.152 0.384 13.664L2.592 13.296C2.928 14.016 3.712 14.432 4.752 14.432C5.84 14.432 6.464 14.064 6.464 13.424C6.464 11.6 0.688 13.088 0.72 9.424C0.752 7.776 2.384 6.688 4.656 6.688C6.544 6.688 8.24 7.568 8.688 8.992L6.512 9.376C6.24 8.752 5.536 8.384 4.72 8.384C3.712 8.384 3.12 8.736 3.12 9.344C3.12 11.168 8.912 9.536 8.912 13.2C8.912 15.024 7.296 16.16 4.736 16.16ZM30.1992 16.208C27.9272 16.208 26.1352 14.496 26.1352 11.424C26.1352 8.352 27.9112 6.672 30.1832 6.672C31.4792 6.672 32.6473 7.312 33.1112 8.4V6.848H35.5433V15.984H33.1112V14.496C32.6632 15.552 31.4792 16.208 30.1992 16.208ZM30.8872 14.176C32.2312 14.176 33.1912 13.152 33.1912 11.424C33.1912 9.712 32.2312 8.688 30.8712 8.688C29.5272 8.688 28.5672 9.696 28.5672 11.424C28.5672 13.168 29.5272 14.176 30.8872 14.176ZM37.3228 18.96V6.848H39.7548V8.336C40.1548 7.392 41.2428 6.672 42.6828 6.672C44.7788 6.672 46.7308 8.112 46.7308 11.408C46.7308 14.704 44.7628 16.144 42.6668 16.144C41.2268 16.144 40.1548 15.392 39.7548 14.448V18.96H37.3228ZM41.9788 14.144C43.3548 14.144 44.2988 13.136 44.2988 11.408C44.2988 9.68 43.3548 8.656 41.9948 8.656C40.6348 8.656 39.6748 9.68 39.6748 11.408C39.6748 13.136 40.6348 14.144 41.9788 14.144ZM48.1434 18.96V6.848H50.5754V8.336C50.9754 7.392 52.0634 6.672 53.5034 6.672C55.5994 6.672 57.5514 8.112 57.5514 11.408C57.5514 14.704 55.5834 16.144 53.4874 16.144C52.0474 16.144 50.9754 15.392 50.5754 14.448V18.96H48.1434ZM52.7994 14.144C54.1754 14.144 55.1194 13.136 55.1194 11.408C55.1194 9.68 54.1754 8.656 52.8154 8.656C51.4554 8.656 50.4954 9.68 50.4954 11.408C50.4954 13.136 51.4554 14.144 52.7994 14.144ZM60.2012 18.96L61.4972 15.952L57.7052 6.848H60.3612L62.7932 13.344L65.2092 6.848H67.8812L62.8732 18.96H60.2012Z" fill="#565555"/>
<path d="M13.8569 13.9998C13.7259 13.9998 13.6064 13.9724 13.4962 13.9248C13.3308 13.8521 13.1872 13.7295 13.0872 13.5759C12.9873 13.4211 12.9299 13.2413 12.9299 13.0389H11C11 13.4449 11.0804 13.8367 11.2251 14.1915C11.4423 14.7237 11.8041 15.1738 12.259 15.4928C12.7139 15.8119 13.2687 16.0001 13.8569 15.9989V13.9986V13.9998Z" fill="#565555"/>
<path d="M16.7139 9.95994C16.7139 9.8242 16.7403 9.70038 16.7862 9.58608C16.8563 9.41462 16.9746 9.26579 17.1228 9.16221C17.2721 9.05862 17.4456 8.99909 17.6409 8.99909C17.7718 8.99909 17.8913 9.02647 18.0016 9.0741C18.167 9.14673 18.3106 9.26937 18.4105 9.42296C18.5105 9.57774 18.5679 9.75634 18.5679 9.95994H20.4977C20.4977 9.55393 20.4173 9.16221 20.2726 8.8074C20.0555 8.27518 19.6936 7.82512 19.2388 7.50603C18.7839 7.18694 18.229 6.99881 17.6409 7.00001C17.2492 7.00001 16.8712 7.08335 16.5289 7.23337C16.0154 7.4584 15.5812 7.83345 15.2734 8.30495C14.9655 8.77644 14.784 9.35152 14.7852 9.96113H16.715L16.7139 9.95994Z" fill="#565555"/>
<path d="M12.9299 13.0389V7.14404H11V13.0389" fill="#565555"/>
<path d="M24.2804 13.1069V7.87756H22.3506V13.1069" fill="#565555"/>
<path d="M13.7295 16.0001C13.749 16.0001 13.7697 16.0001 13.7904 16.0001C14.1304 16.0001 14.6048 15.9632 15.1436 15.7917C15.5387 15.6667 15.9006 15.4917 16.2326 15.294C16.5645 15.0964 16.8689 14.8749 17.1492 14.6499C17.6237 14.2701 18.09 13.8724 18.5426 13.4533C18.9378 13.0854 19.3766 12.6722 19.758 12.1281C19.9602 11.8388 20.1416 11.5149 20.276 11.153C20.4104 10.791 20.4966 10.3886 20.4966 9.95996H18.5668C18.5668 10.11 18.5369 10.2671 18.4749 10.4362C18.4128 10.6041 18.3175 10.7815 18.1957 10.9553C17.9637 11.2887 17.6363 11.6126 17.2561 11.9638C16.8448 12.346 16.4152 12.7127 15.9718 13.0663C15.7386 13.2521 15.5054 13.4212 15.2722 13.5593C15.039 13.6974 14.8081 13.8069 14.5784 13.8795C14.2694 13.9772 13.9925 13.9998 13.7904 13.9998C13.7777 13.9998 13.7651 13.9998 13.7536 13.9998L13.7295 16.0001Z" fill="#565555"/>
<path d="M21.4235 15.9881C21.8152 15.9881 22.1932 15.9048 22.5355 15.7547C23.049 15.5297 23.4832 15.1547 23.791 14.6832C24.0989 14.2117 24.2804 13.6366 24.2792 13.027H22.3494C22.3494 13.1627 22.323 13.2865 22.277 13.4008C22.2069 13.5723 22.0886 13.7211 21.9404 13.8247C21.7911 13.9283 21.6176 13.9878 21.4224 13.9878V15.9881H21.4235Z" fill="#565555"/>
<path d="M24.2804 13.027V7.14404H22.3506V13.027" fill="#565555"/>
<path d="M21.5269 13.988C21.5154 13.988 21.5028 13.988 21.4902 13.988C21.288 13.988 21.0111 13.9653 20.7021 13.8677C20.4724 13.7951 20.2415 13.6867 20.0083 13.5474C19.7751 13.4093 19.5419 13.2402 19.3087 13.0545C18.8653 12.6997 18.4357 12.3342 18.0245 11.952C17.6442 11.6007 17.3157 11.2769 17.0848 10.9435C16.9642 10.7709 16.8677 10.5934 16.8057 10.4244C16.7437 10.2553 16.7138 10.0981 16.7138 9.94812H14.7839C14.7839 10.3768 14.8701 10.7804 15.0045 11.1411C15.1389 11.5031 15.3204 11.8269 15.5226 12.1163C15.9039 12.6604 16.3427 13.0735 16.7379 13.4415C17.1905 13.8618 17.6569 14.2582 18.1313 14.638C18.4127 14.8631 18.716 15.0833 19.048 15.2822C19.38 15.4798 19.7418 15.6549 20.137 15.7799C20.6757 15.9513 21.1513 15.9882 21.4902 15.9882C21.5108 15.9882 21.5304 15.9882 21.551 15.9882L21.5269 13.988Z" fill="#565555"/>
</svg>
