<svg width="35" height="35" viewBox="0 0 35 35" fill="none" xmlns="http://www.w3.org/2000/svg">
<rect opacity="0.3" width="35" height="35" rx="17.5" fill="white"/>
<path d="M17.6641 27.2695C16.4219 27.2695 15.2773 27.0781 14.2305 26.6953C13.1836 26.3047 12.2695 25.7422 11.4883 25.0078C10.707 24.2656 10.0977 23.3281 9.66016 22.1953C9.22266 21.0547 9.00391 19.7695 9.00391 18.3398C9.00391 16.9336 9.21875 15.6641 9.64844 14.5312C10.0859 13.3906 10.6836 12.4531 11.4414 11.7188C12.207 10.9844 13.0977 10.4219 14.1133 10.0312C15.1367 9.63281 16.2422 9.43359 17.4297 9.43359C18.6328 9.43359 19.75 9.59766 20.7812 9.92578C21.8125 10.2461 22.7148 10.7188 23.4883 11.3438C24.2695 11.9688 24.8828 12.7734 25.3281 13.7578C25.7734 14.7344 25.9961 15.8438 25.9961 17.0859C25.9961 18.9297 25.5781 20.3594 24.7422 21.375C23.9141 22.3906 22.6758 22.8984 21.0273 22.8984H20.3477L20.3008 21.4805C20.0195 22.0898 19.625 22.5312 19.1172 22.8047C18.6094 23.0703 17.9492 23.2031 17.1367 23.2031C15.8633 23.2031 14.8281 22.7617 14.0312 21.8789C13.2344 20.9961 12.8359 19.8398 12.8359 18.4102C12.8359 16.9805 13.2344 15.8281 14.0312 14.9531C14.8281 14.0703 15.8711 13.6289 17.1602 13.6289C18.668 13.6289 19.7148 14.293 20.3008 15.6211V13.8516H21.8359V21.3398C22.6953 21.3398 23.3242 20.9922 23.7227 20.2969C24.1289 19.5938 24.332 18.5469 24.332 17.1562C24.332 15.2344 23.707 13.7344 22.457 12.6562C21.2148 11.5781 19.5273 11.0391 17.3945 11.0391C15.3242 11.0391 13.6836 11.6953 12.4727 13.0078C11.2617 14.3203 10.6562 16.0977 10.6562 18.3398C10.6562 20.6055 11.2734 22.3906 12.5078 23.6953C13.7422 25 15.4531 25.6523 17.6406 25.6523C19.6094 25.6523 21.2109 25.1406 22.4453 24.1172L23.5938 25.3242C22.0078 26.6211 20.0312 27.2695 17.6641 27.2695ZM17.3242 21.6445C17.7852 21.6445 18.1836 21.5977 18.5195 21.5039C18.8555 21.4102 19.1602 21.2461 19.4336 21.0117C19.7148 20.7773 19.9258 20.4453 20.0664 20.0156C20.207 19.5781 20.2773 19.043 20.2773 18.4102C20.2773 17.3711 19.9961 16.5625 19.4336 15.9844C18.8711 15.4062 18.168 15.1172 17.3242 15.1172C16.4961 15.1172 15.8008 15.4102 15.2383 15.9961C14.6758 16.582 14.3945 17.3867 14.3945 18.4102C14.3945 19.4336 14.6719 20.2305 15.2266 20.8008C15.7891 21.3633 16.4883 21.6445 17.3242 21.6445Z" fill="black"/>
</svg>
