<?xml version="1.0" encoding="UTF-8"?>
<svg version="1.1" xmlns="http://www.w3.org/2000/svg" width="531" height="513">
<path d="M0 0 C1.37601817 -0.00299856 2.7520355 -0.00640268 4.12805176 -0.01017761 C7.83662786 -0.01894704 11.54518083 -0.02135262 15.2537663 -0.0219934 C17.57591249 -0.02270748 19.89805292 -0.02484844 22.22019768 -0.02749062 C30.33544153 -0.0367179 38.45066904 -0.04082845 46.56591797 -0.04003906 C54.1095118 -0.03943771 61.65303426 -0.0500075 69.19661003 -0.06578273 C75.69456649 -0.0788833 82.19249966 -0.08422196 88.69046921 -0.08358365 C92.56222709 -0.08332958 96.43392134 -0.0861312 100.30566597 -0.0967617 C103.94600718 -0.10648623 107.58622439 -0.10649225 111.22657013 -0.09924507 C113.18687546 -0.09771174 115.1471809 -0.1060138 117.10746765 -0.11468506 C127.1890911 -0.07897901 136.12493397 0.29144585 143.69311523 7.75073242 C148.67376535 13.18744207 150.59273665 18.32885064 150.36889648 25.71557617 C149.38881516 33.53109644 146.16794412 38.80300956 140.16186523 43.77026367 C135.81914512 46.6168884 132.13561348 47.39601803 126.9740448 47.41027832 C125.75026627 47.41855148 124.52648773 47.42682465 123.265625 47.43534851 C121.91748036 47.434524 120.56933581 47.43352638 119.22119141 47.43237305 C117.79502472 47.43840036 116.36886159 47.4453254 114.94270325 47.45307922 C111.87561693 47.46794985 108.80859552 47.47671287 105.74147606 47.48078918 C100.88709922 47.48751443 96.03286079 47.50928357 91.17854309 47.5333252 C80.86963087 47.58226563 70.56068929 47.61458993 60.25170898 47.64526367 C49.13188568 47.67837425 38.01211664 47.71438636 26.89237672 47.7693944 C22.07170498 47.79267662 17.2511293 47.80646749 12.43040693 47.8128891 C9.42430366 47.81884921 6.41827773 47.83296445 3.41221428 47.84923363 C2.02394369 47.8550841 0.63565408 47.85758717 -0.75262833 47.85639381 C-14.74759479 47.82062226 -14.74759479 47.82062226 -26.93579102 54.14526367 C-31.39735143 59.10255302 -33.18442096 62.5644191 -33.19305992 69.25297928 C-33.19950881 70.51351568 -33.20595771 71.77405209 -33.21260202 73.07278657 C-33.20965964 74.47432638 -33.20652419 75.87586579 -33.20321655 77.27740479 C-33.20695203 78.76421075 -33.21155314 80.25101475 -33.2169472 81.73781562 C-33.22920552 85.82932391 -33.2289134 89.9207506 -33.22655845 94.01227307 C-33.22615099 98.42277115 -33.23718269 102.83324281 -33.24667358 107.24372864 C-33.26330053 115.88732786 -33.26878391 124.5308998 -33.26989834 133.17451367 C-33.2708481 140.20000271 -33.27495478 147.22548274 -33.28129959 154.25096893 C-33.29891733 174.16366336 -33.30813774 194.07633622 -33.30663864 213.9890385 C-33.30651877 215.5999515 -33.30651877 215.5999515 -33.30639648 217.2434082 C-33.30631472 218.31865965 -33.30623296 219.39391109 -33.30614872 220.50174591 C-33.30533587 237.9266463 -33.32447187 255.35146024 -33.35267322 272.77633563 C-33.38139273 290.66234334 -33.395214 308.54830888 -33.39348567 326.43434024 C-33.3928214 336.47824932 -33.39832969 346.52206779 -33.41984177 356.56595612 C-33.43804138 365.118211 -33.44241101 373.67033422 -33.42882292 382.22260007 C-33.42228684 386.58613531 -33.42219902 390.94941786 -33.43952942 395.31292915 C-33.45523727 399.30902295 -33.45242014 403.30466324 -33.43496116 407.30074582 C-33.43188617 408.7449064 -33.4355425 410.18910064 -33.44668131 411.63322154 C-33.51565934 421.21194026 -33.13940112 427.84611697 -26.18579102 434.95776367 C-17.66032768 440.6960563 -9.83692681 440.57499528 0.16416931 440.5262146 C1.70733822 440.52967384 3.25050465 440.53444019 4.79366595 440.54039633 C9.02247183 440.55289958 13.25107415 440.54673902 17.47988069 440.53743768 C22.04506763 440.53064471 26.61021977 440.54112969 31.17539978 440.54937744 C40.1142522 440.56271463 49.05302903 440.559837 57.9918844 440.55113952 C65.25754617 440.54436291 72.52318676 440.54344616 79.78885078 440.54671097 C80.82315346 440.54717067 81.85745614 440.54763037 82.92310132 440.548104 C85.02431548 440.54906318 87.12552962 440.55003582 89.22674377 440.55102177 C108.92847185 440.55957573 128.63015805 440.54974165 148.33187927 440.53362067 C165.23282981 440.52021948 182.13371854 440.52254394 199.03466797 440.53637695 C218.66460566 440.55243607 238.29450664 440.55874966 257.92444998 440.54954016 C260.01821712 440.54858452 262.11198427 440.54764141 264.20575142 440.54671097 C265.23590235 440.54624814 266.26605328 440.54578531 267.3274209 440.54530846 C274.58291805 440.54271943 281.83839189 440.54708776 289.09388542 440.55414963 C297.93805464 440.56256858 306.782144 440.56027622 315.62630408 440.5443074 C320.13778798 440.53642973 324.64913877 440.53332448 329.16062164 440.54325485 C333.29286084 440.5522128 337.4248439 440.54725083 341.55705995 440.5313222 C343.04956609 440.52797902 344.54209399 440.52965803 346.03458606 440.53694956 C359.92012862 440.66887854 359.92012862 440.66887854 371.93920898 434.39526367 C372.47288086 433.94666992 373.00655273 433.49807617 373.55639648 433.03588867 C377.5253586 428.0592626 378.4394025 423.09810498 378.44947815 416.86549377 C378.45471384 416.16686987 378.45994954 415.46824597 378.46534389 414.74845165 C378.47922653 412.42554586 378.47202437 410.10320214 378.46484375 407.78027344 C378.47059045 406.10750844 378.47767494 404.43474759 378.48599243 402.76199341 C378.50107569 399.16834737 378.50688237 395.57484962 378.50546455 391.98117256 C378.50342671 386.29489551 378.52302587 380.60881708 378.54563904 374.92259216 C378.5865788 363.87701323 378.60520868 352.83145007 378.62181091 341.78581238 C378.64417811 327.72980605 378.67777154 313.67384582 378.72901005 299.61791462 C378.74889309 293.96930729 378.75850911 288.32080409 378.7599622 282.67216313 C378.76271934 279.15365445 378.77356437 275.63520294 378.78647232 272.11671829 C378.79073917 270.48978266 378.7916207 268.86283394 378.78879738 267.23589516 C378.78537546 265.00780478 378.794227 262.78007237 378.80592346 260.55201721 C378.80755776 259.30747048 378.80919207 258.06292376 378.81087589 256.78066349 C379.41032257 248.17843816 381.9936623 241.78589575 388.43920898 235.89526367 C393.66897478 231.67164732 398.77212726 230.61036411 405.40795898 230.77026367 C412.70516684 231.80045772 418.33914299 235.67018233 422.90795898 241.30151367 C425.86165158 246.01145591 426.31750798 249.99292753 426.33163452 255.51705933 C426.33616563 256.24987094 426.34069675 256.98268255 426.34536517 257.73770058 C426.3580055 260.18856081 426.356389 262.63919871 426.35473633 265.09008789 C426.3607222 266.84971909 426.36752788 268.60934766 426.37509155 270.36897278 C426.3927624 275.14847109 426.39744766 279.92789777 426.39872313 284.70742559 C426.40014578 287.69846304 426.40441776 290.68948235 426.40971756 293.68051529 C426.42822825 304.13036501 426.43638772 314.58016372 426.43481445 325.0300293 C426.4336159 334.74393307 426.45465922 344.45761362 426.48630178 354.17146099 C426.51254602 362.52842555 426.5231782 370.88531764 426.52190363 379.24232304 C426.52139597 384.22552082 426.52696891 389.20852064 426.54825974 394.19167709 C426.56777725 398.88839257 426.56767521 403.58472422 426.55322647 408.28145409 C426.55115323 409.99414958 426.55574935 411.70686993 426.56794739 413.41952324 C426.70437642 433.92292958 421.30599604 452.19999416 407.40497075 467.74152301 C401.7559381 473.34540336 396.24048539 473.8195829 388.54373246 473.86527956 C386.78123441 473.83441842 385.01875758 473.80232645 383.25630188 473.76913452 C381.35903291 473.78126407 379.46179327 473.79907328 377.56462449 473.82203639 C372.37466534 473.86839306 367.18794801 473.8340984 361.99812067 473.78604817 C356.39264501 473.74831848 350.78759299 473.78571243 345.18212891 473.81347656 C334.2113852 473.85582368 323.24187264 473.82856255 312.27121059 473.77701215 C299.49371848 473.71922658 286.71652221 473.72742192 273.93893459 473.73750623 C250.45296325 473.75341252 226.96778177 473.69895416 203.48202592 473.61278348 C182.05115459 473.53453585 160.6209359 473.51174286 139.18994141 473.53833008 C133.70001146 473.5450771 128.21008152 473.55178786 122.72015095 473.55800438 C121.70627147 473.55915741 121.70627147 473.55915741 120.67190957 473.56033374 C102.75093626 473.57992414 84.83003355 473.55687882 66.90908784 473.52077448 C64.34018626 473.51562681 61.77128466 473.5104885 59.20238304 473.50535965 C57.93846269 473.50279122 56.67454234 473.50022279 55.37232137 473.49757653 C46.4661488 473.48119724 37.56010281 473.48422778 28.65392494 473.49418259 C17.80222213 473.50547499 6.95116174 473.48381949 -3.90037116 473.42044763 C-9.43691604 473.38884332 -14.9725114 473.37150458 -20.50912666 473.39307022 C-25.5781696 473.41236232 -30.64526749 473.39005026 -35.7140281 473.33458836 C-37.54688373 473.32176378 -39.37992089 473.32405458 -41.2127231 473.34303646 C-56.60234589 473.48823277 -56.60234589 473.48823277 -62.42048359 467.78772926 C-64.3539384 465.40972674 -64.3539384 465.40972674 -65.93579102 463.14526367 C-66.40629228 462.54718128 -66.87679354 461.94909888 -67.36155242 461.33289278 C-75.57920456 450.53849466 -81.04823625 437.40228922 -81.07001209 423.75946903 C-81.07669886 421.81375211 -81.07669886 421.81375211 -81.08352071 419.82872778 C-81.08343142 418.39103193 -81.08324158 416.95333608 -81.08296204 415.51564026 C-81.08626241 413.986876 -81.08998834 412.4581126 -81.09410352 410.92935032 C-81.10411213 406.72628887 -81.10783848 402.52324171 -81.11049283 398.32017004 C-81.11439931 393.78756265 -81.12397748 389.25496652 -81.13270569 384.72236633 C-81.1524614 373.77434464 -81.16253564 362.82632204 -81.17143348 351.87828699 C-81.17581825 346.72029412 -81.18118461 341.56230228 -81.18642235 336.40431023 C-81.2034345 319.25342427 -81.21792777 302.10253895 -81.22517109 284.95164585 C-81.22708093 280.50161806 -81.22900127 276.05159027 -81.23095703 271.6015625 C-81.23144077 270.49555366 -81.23192451 269.38954482 -81.23242291 268.25002056 C-81.24071983 250.34101952 -81.26605112 232.43208535 -81.29853771 214.5231135 C-81.33163257 196.1285444 -81.34962209 177.73400926 -81.35281533 159.33941025 C-81.35497828 149.01474514 -81.36369544 138.69017751 -81.3892765 128.36554146 C-81.41101673 119.57084674 -81.41901762 110.77627318 -81.40930972 101.98155463 C-81.40477452 97.49777576 -81.40660565 93.0142467 -81.42607117 88.53050232 C-81.44377187 84.41757077 -81.44264965 80.30506999 -81.42717388 76.19213342 C-81.42480821 74.71222672 -81.42906671 73.23228965 -81.44100253 71.75242919 C-81.58617202 52.54836635 -75.45594566 35.1709108 -62.14672852 21.15625 C-44.90914347 3.88008221 -23.46399219 -0.00838369 0 0 Z " fill="#FFFFFF" transform="translate(80.935791015625,40.854736328125)"/>
<path d="M0 0 C3.01571114 2.59275264 5.94371222 5.27216017 8.85180664 7.98461914 C9.87902832 8.93957275 9.87902832 8.93957275 10.92700195 9.91381836 C13.74420705 12.53856346 16.55764952 15.1666303 19.34741211 17.82055664 C22.17422382 20.50794216 24.99050635 23.13507934 28.03540039 25.57446289 C40.6180551 36.34214383 47.3867545 52.97255206 49.08374023 69.20288086 C50.33683542 87.39054953 45.80791959 105.20828307 34.09790039 119.50024414 C27.18304719 127.14867307 19.83115855 134.48633572 11.96508789 141.15649414 C9.07356576 143.65784785 6.27933903 146.25939355 3.47680664 148.85961914 C-1.18728417 153.18245131 -5.88513989 157.46279002 -10.62084961 161.70727539 C-13.47901539 164.28271689 -16.31529597 166.88147678 -19.14819336 169.48461914 C-23.60151953 173.57631121 -28.08479224 177.63284891 -32.58569336 181.67211914 C-35.45419745 184.26076917 -38.30295986 186.8704706 -41.14819336 189.48461914 C-45.60154823 193.57628021 -50.0847919 197.6328486 -54.58569336 201.67211914 C-57.45419745 204.26076917 -60.30295986 206.8704706 -63.14819336 209.48461914 C-67.60154823 213.57628021 -72.0847919 217.6328486 -76.58569336 221.67211914 C-79.45419745 224.26076917 -82.30295986 226.8704706 -85.14819336 229.48461914 C-89.60154823 233.57628021 -94.0847919 237.6328486 -98.58569336 241.67211914 C-101.97217657 244.72821375 -105.3306415 247.81447526 -108.68945312 250.90087891 C-111.80452461 253.76064119 -114.93671011 256.59977273 -118.08569336 259.42211914 C-121.97189934 262.90910011 -125.81662143 266.437939 -129.64819336 269.98461914 C-134.23349123 274.22898287 -138.82576897 278.46194209 -143.5300293 282.57495117 C-146.17008424 284.92725019 -146.17008424 284.92725019 -148.42041016 287.52099609 C-157.77475202 297.42480375 -169.18556427 300.55104508 -181.89819336 304.60961914 C-184.22488121 305.37888483 -186.550386 306.15173704 -188.87475586 306.92797852 C-193.64402252 308.51929057 -198.41717891 310.09801855 -203.19311523 311.66918945 C-212.58992628 314.77776491 -221.90817459 318.10057386 -231.22546387 321.43841553 C-236.15468617 323.20285189 -241.08859383 324.95403651 -246.02319336 326.70336914 C-247.00982971 327.05313812 -247.99646606 327.4029071 -249.01300049 327.76327515 C-261.78004275 332.2806269 -274.58441142 336.69074781 -287.38885498 341.10073853 C-299.62589405 345.31547182 -311.84558251 349.57184065 -324.03100586 353.93383789 C-325.15206726 354.33442413 -326.27312866 354.73501038 -327.42816162 355.1477356 C-332.8058407 357.07001936 -338.18047321 359.00014778 -343.55053711 360.94360352 C-345.46058792 361.62814259 -347.37073845 362.31240351 -349.28100586 362.99633789 C-350.59260178 363.47607307 -350.59260178 363.47607307 -351.93069458 363.96549988 C-353.98353509 364.69630964 -356.06392239 365.34896861 -358.14819336 365.98461914 C-358.80819336 365.65461914 -359.46819336 365.32461914 -360.14819336 364.98461914 C-349.06792264 334.60413819 -337.98732695 304.22388172 -326.82296753 273.87417603 C-322.53094394 262.20633689 -318.24983231 250.53463196 -313.98803711 238.85571289 C-313.55635223 237.67294266 -313.12466736 236.49017242 -312.67990112 235.27156067 C-310.20974167 228.50270367 -307.74202024 221.73296454 -305.27641296 214.96244812 C-304.19742791 212.00917795 -303.10906501 209.05949886 -302.01953125 206.11010742 C-300.89502477 203.05972284 -299.80845296 200.00522185 -298.79052734 196.91772461 C-296.18561707 189.33375338 -292.93303735 184.78994834 -286.83569336 179.60961914 C-286.11446289 178.96379883 -285.39323242 178.31797852 -284.65014648 177.65258789 C-282.50309428 175.73853418 -280.33015984 173.85870078 -278.14819336 171.98461914 C-273.33385462 167.80095543 -268.56878497 163.57823218 -263.89819336 159.23461914 C-262.77204394 158.19148556 -261.64573825 157.14852065 -260.51928711 156.10571289 C-259.95838379 155.58605957 -259.39748047 155.06640625 -258.81958008 154.53100586 C-251.831835 148.06586164 -244.79574737 141.65550094 -237.71069336 135.29711914 C-234.84218927 132.70846911 -231.99342686 130.09876768 -229.14819336 127.48461914 C-224.69483849 123.39295807 -220.21159482 119.33638968 -215.71069336 115.29711914 C-212.84218927 112.70846911 -209.99342686 110.09876768 -207.14819336 107.48461914 C-202.69483849 103.39295807 -198.21159482 99.33638968 -193.71069336 95.29711914 C-190.84218927 92.70846911 -187.99342686 90.09876768 -185.14819336 87.48461914 C-180.69483849 83.39295807 -176.21159482 79.33638968 -171.71069336 75.29711914 C-168.84218927 72.70846911 -165.99342686 70.09876768 -163.14819336 67.48461914 C-158.69483849 63.39295807 -154.21159482 59.33638968 -149.71069336 55.29711914 C-146.84218927 52.70846911 -143.99342686 50.09876768 -141.14819336 47.48461914 C-136.69483849 43.39295807 -132.21159482 39.33638968 -127.71069336 35.29711914 C-124.32421015 32.24102453 -120.96574522 29.15476302 -117.60693359 26.06835938 C-113.68601165 22.46879361 -109.73438357 18.90556065 -105.76147461 15.36352539 C-103.85184082 13.62515921 -101.98271299 11.8700448 -100.12866211 10.07446289 C-72.62576473 -16.37677888 -31.87711286 -26.31047883 0 0 Z M-65.64819336 42.79711914 C-66.97029944 44.06489209 -68.29320601 45.33183081 -69.61694336 46.59790039 C-70.54506836 47.4924292 -70.54506836 47.4924292 -71.49194336 48.4050293 C-73.32953363 50.15756601 -75.216414 51.83667578 -77.14819336 53.48461914 C-81.08776982 56.87127259 -84.85954226 60.43143653 -88.64819336 63.98461914 C-93.05905518 68.12080798 -97.48688055 72.21096724 -102.07006836 76.15649414 C-105.51487955 79.18689196 -108.86347637 82.32155929 -112.22851562 85.43994141 C-116.32567687 89.23391627 -120.46255819 92.98031404 -124.62084961 96.70727539 C-127.47901539 99.28271689 -130.31529597 101.88147678 -133.14819336 104.48461914 C-137.60151953 108.57631121 -142.08479224 112.63284891 -146.58569336 116.67211914 C-149.45419745 119.26076917 -152.30295986 121.8704706 -155.14819336 124.48461914 C-159.60154823 128.57628021 -164.0847919 132.6328486 -168.58569336 136.67211914 C-171.45419745 139.26076917 -174.30295986 141.8704706 -177.14819336 144.48461914 C-181.60154823 148.57628021 -186.0847919 152.6328486 -190.58569336 156.67211914 C-193.45419745 159.26076917 -196.30295986 161.8704706 -199.14819336 164.48461914 C-202.79748861 167.83752493 -206.45988904 171.17460245 -210.14819336 174.48461914 C-215.8548103 179.60781199 -221.5013469 184.79581853 -227.14819336 189.98461914 C-248.31477359 209.4342651 -248.31477359 209.4342651 -251.99829102 211.86669922 C-256.63007635 215.74580289 -257.99027515 221.39505323 -259.89819336 226.94165039 C-260.31939453 228.11741135 -260.7405957 229.2931723 -261.17456055 230.50456238 C-262.29034432 233.62906971 -263.38992511 236.75832026 -264.48168945 239.89123535 C-265.57672912 243.02252736 -266.69145375 246.14678036 -267.80444336 249.27172852 C-269.50290171 254.04372922 -271.1917497 258.81896625 -272.87475586 263.59643555 C-275.20988242 270.19811828 -277.66306534 276.74884331 -280.18725586 283.28027344 C-281.25980059 285.82038003 -281.25980059 285.82038003 -281.14819336 287.98461914 C-273.29054805 286.45832532 -265.9029784 283.9560934 -258.36694336 281.29321289 C-257.02736718 280.82397102 -255.68764212 280.35515398 -254.34777832 279.88673401 C-250.82456785 278.65358792 -247.30359741 277.41416275 -243.78302002 276.17352295 C-240.29034866 274.9441929 -236.79530293 273.7216512 -233.30053711 272.49829102 C-229.18784054 271.05836031 -225.07637341 269.61520096 -220.96948242 268.15878296 C-220.30193939 267.92205683 -219.63439636 267.6853307 -218.94662476 267.44143105 C-217.61670305 266.9697948 -216.28680775 266.49808412 -214.9569397 266.02629662 C-210.59175598 264.48226916 -206.2121985 262.98616501 -201.82397461 261.50854492 C-200.68714233 261.11844742 -199.55031006 260.72834991 -198.37902832 260.32643127 C-196.28655188 259.6085446 -194.18927222 258.90442404 -192.08630371 258.21788025 C-185.50592895 255.93270472 -181.07138873 252.8801985 -176.14819336 247.98461914 C-175.30772461 247.23696289 -174.46725586 246.48930664 -173.60131836 245.71899414 C-167.08121801 239.84627964 -160.60949078 233.92180625 -154.14819336 227.98461914 C-147.69722528 222.0569235 -141.2310062 216.14868194 -134.71069336 210.29711914 C-131.84218927 207.70846911 -128.99342686 205.09876768 -126.14819336 202.48461914 C-121.69483849 198.39295807 -117.21159482 194.33638968 -112.71069336 190.29711914 C-109.84218927 187.70846911 -106.99342686 185.09876768 -104.14819336 182.48461914 C-99.69483849 178.39295807 -95.21159482 174.33638968 -90.71069336 170.29711914 C-87.84218927 167.70846911 -84.99342686 165.09876768 -82.14819336 162.48461914 C-77.69483849 158.39295807 -73.21159482 154.33638968 -68.71069336 150.29711914 C-65.84218927 147.70846911 -62.99342686 145.09876768 -60.14819336 142.48461914 C-55.69483849 138.39295807 -51.21159482 134.33638968 -46.71069336 130.29711914 C-43.84218927 127.70846911 -40.99342686 125.09876768 -38.14819336 122.48461914 C-33.69889812 118.39668798 -29.22032286 114.34319584 -24.72241211 110.30883789 C-22.8420383 108.61108005 -20.96981995 106.90656357 -19.10522461 105.19165039 C-18.58645752 104.7146167 -18.06769043 104.23758301 -17.53320312 103.74609375 C-16.49171008 102.78641959 -15.45180938 101.82501421 -14.41357422 100.86181641 C-11.76430468 98.41524208 -9.06700873 96.1202401 -6.21069336 93.92211914 C-1.50868076 89.90005444 1.1790554 84.50699148 2.33227539 78.46899414 C2.76939708 70.9552268 -0.1776495 64.45876301 -5.02319336 58.79174805 C-7.1107066 56.71765454 -9.25594799 54.74590462 -11.46069336 52.79711914 C-12.18192383 52.13776367 -12.9031543 51.4784082 -13.64624023 50.79907227 C-26.88177067 37.27718664 -26.88177067 37.27718664 -43.96069336 31.60961914 C-44.93651367 31.58125977 -45.91233398 31.55290039 -46.91772461 31.52368164 C-54.83534338 32.65340234 -60.11254887 37.353928 -65.64819336 42.79711914 Z " fill="#FFFFFF" transform="translate(482.148193359375,31.015380859375)"/>
</svg>
