<?xml version="1.0" encoding="UTF-8"?>
<svg version="1.1" xmlns="http://www.w3.org/2000/svg" width="512" height="512">
<path d="M0 0 C1.02722168 0.19190918 1.02722168 0.19190918 2.07519531 0.38769531 C4.18829297 5.56478459 5.81212959 10.80209272 7.26269531 16.20019531 C7.44155273 16.85834229 7.62041016 17.51648926 7.8046875 18.19458008 C8.54925574 21.0186418 9.07519531 23.45285484 9.07519531 26.38769531 C10.18636719 26.18273437 11.29753906 25.97777344 12.44238281 25.76660156 C13.94494986 25.49426128 15.44755618 25.22213758 16.95019531 24.95019531 C17.67722656 24.81548828 18.40425781 24.68078125 19.15332031 24.54199219 C28.25626785 22.90505864 37.21396324 22.23636829 46.45800781 22.29003906 C47.8684285 22.29216148 47.8684285 22.29216148 49.30734253 22.29432678 C52.27166099 22.29986523 55.23590019 22.3124057 58.20019531 22.32519531 C60.22623588 22.33021829 62.25227764 22.33477979 64.27832031 22.33886719 C69.2106419 22.34981439 74.14290523 22.36703551 79.07519531 22.38769531 C79.06359375 21.53304688 79.05199219 20.67839844 79.04003906 19.79785156 C79.02650391 18.14076172 79.02650391 18.14076172 79.01269531 16.45019531 C79.00109375 15.34804687 78.98949219 14.24589844 78.97753906 13.11035156 C79.07519531 10.38769531 79.07519531 10.38769531 80.07519531 9.38769531 C82.93612082 9.2618062 85.77159297 9.19902299 88.63378906 9.18457031 C89.49327652 9.17887024 90.35276398 9.17317017 91.23829651 9.16729736 C93.0599748 9.15783351 94.88167033 9.1513079 96.70336914 9.14746094 C99.49753496 9.13774801 102.29096774 9.10673523 105.08496094 9.07519531 C106.85123259 9.06866636 108.61750953 9.06341547 110.38378906 9.05957031 C111.64321571 9.04105011 111.64321571 9.04105011 112.92808533 9.02215576 C115.28393555 9.03125 115.28393555 9.03125 119.07519531 9.38769531 C121.14243245 12.48855102 121.32016954 13.11701212 121.27050781 16.61816406 C121.2640625 17.42060547 121.25761719 18.22304688 121.25097656 19.04980469 C121.23421875 19.88318359 121.21746094 20.7165625 121.20019531 21.57519531 C121.19117188 22.42017578 121.18214844 23.26515625 121.17285156 24.13574219 C121.14930235 26.21984774 121.11343179 28.30380748 121.07519531 30.38769531 C121.69338135 30.49944092 122.31156738 30.61118652 122.94848633 30.72631836 C171.1885379 39.84785677 219.18225244 73.93082827 249.07519531 112.38769531 C249.8628125 113.36996094 250.65042969 114.35222656 251.46191406 115.36425781 C268.81417747 137.16951408 282.23594213 161.96729565 291.07519531 188.38769531 C291.35443848 189.22107422 291.63368164 190.05445313 291.92138672 190.91308594 C294.91657762 200.01677387 297.40273654 209.1853574 299.32519531 218.57519531 C299.47633789 219.30939697 299.62748047 220.04359863 299.78320312 220.80004883 C302.73698022 236.20069589 303.44869091 251.43057704 303.38769531 267.07519531 C303.38496109 268.53194672 303.38496109 268.53194672 303.38217163 270.01812744 C303.33790959 284.02021561 302.92391301 297.63633806 300.07519531 311.38769531 C299.91422363 312.2367041 299.75325195 313.08571289 299.58740234 313.96044922 C291.15121784 358.19976835 270.78360124 399.41781763 240.07519531 432.38769531 C238.88279409 433.75844714 237.69505648 435.13327395 236.51269531 436.51269531 C230.49567254 443.38339179 224.04351063 449.39584532 216.91503906 455.10644531 C215.07615688 456.58362165 213.25440708 458.08249071 211.45410156 459.60644531 C198.76533687 470.31553647 184.74480366 478.69364817 170.07519531 486.38769531 C169.00205078 486.95786377 169.00205078 486.95786377 167.90722656 487.53955078 C145.62219509 499.2351331 120.89955829 506.60786209 96.07519531 510.38769531 C94.91294434 510.57098389 93.75069336 510.75427246 92.55322266 510.94311523 C81.1834951 512.56622993 69.9221858 512.74580135 58.45019531 512.70019531 C57.47520081 512.69804016 56.5002063 512.69588501 55.4956665 512.69366455 C41.47604066 512.64389958 27.83668337 512.28581002 14.07519531 509.38769531 C12.57545166 509.08968018 12.57545166 509.08968018 11.04541016 508.78564453 C-33.11455333 499.90040697 -73.86825379 480.17682936 -106.92480469 449.38769531 C-108.29555652 448.19529409 -109.67038332 447.00755648 -111.04980469 445.82519531 C-117.92050117 439.80817254 -123.93295469 433.35601063 -129.64355469 426.22753906 C-131.12073102 424.38865688 -132.61960009 422.56690708 -134.14355469 420.76660156 C-144.85264584 408.07783687 -153.23075755 394.05730366 -160.92480469 379.38769531 C-161.30491699 378.67226563 -161.6850293 377.95683594 -162.07666016 377.21972656 C-179.8120024 343.42639766 -187.38902081 305.67915063 -187.23730469 267.76269531 C-187.23514954 266.79214203 -187.23299438 265.82158875 -187.23077393 264.82162476 C-187.17973809 250.49338634 -186.83238907 236.46583749 -183.92480469 222.38769531 C-183.72612793 221.40462402 -183.52745117 220.42155273 -183.32275391 219.40869141 C-173.84068411 173.81662697 -151.86599892 126.27190255 -116.73730469 94.51269531 C-114.20181492 92.10644167 -113.44622125 90.42226143 -112.98730469 86.95019531 C-112.96667969 85.77457031 -112.94605469 84.59894531 -112.92480469 83.38769531 C-111.81105469 83.57332031 -110.69730469 83.75894531 -109.54980469 83.95019531 C-104.09827688 83.91233748 -101.72455876 80.84097628 -97.98339844 77.20800781 C-79.79679021 59.92428084 -52.90103418 44.63904277 -28.92480469 37.38769531 C-29.60542969 36.81019531 -30.28605469 36.23269531 -30.98730469 35.63769531 C-31.62667969 34.89519531 -32.26605469 34.15269531 -32.92480469 33.38769531 C-32.58005972 30.19917943 -31.44040639 28.52077837 -29.22851562 26.27148438 C-28.66412781 25.69118469 -28.09973999 25.11088501 -27.51824951 24.51300049 C-26.90475647 23.89930603 -26.29126343 23.28561157 -25.65917969 22.65332031 C-24.71356171 21.69628204 -24.71356171 21.69628204 -23.74884033 20.71990967 C-22.41440516 19.37467736 -21.07597966 18.03339329 -19.73388672 16.69580078 C-17.68226311 14.6451502 -15.65288197 12.57412258 -13.62402344 10.50097656 C-12.32454526 9.19629198 -11.02380502 7.89286294 -9.72167969 6.59082031 C-9.11628357 5.96902893 -8.51088745 5.34723755 -7.887146 4.706604 C-3.58660553 0.47541983 -3.58660553 0.47541983 0 0 Z " fill="#978ECA" transform="translate(197.9248046875,-0.3876953125)"/>
<path d="M0 0 C1.83809235 -0.01142029 1.83809235 -0.01142029 3.71331787 -0.02307129 C6.29860403 -0.03384451 8.88393361 -0.03673675 11.46923828 -0.03222656 C15.39560765 -0.03125649 19.32000712 -0.07286945 23.24609375 -0.1171875 C25.76822513 -0.12239694 28.29036324 -0.12508265 30.8125 -0.125 C31.97227356 -0.14139526 33.13204712 -0.15779053 34.32696533 -0.17468262 C43.30161074 -0.09974657 51.78729143 1.58080211 58.68023682 7.69299316 C62.75066804 11.9548816 65.00307612 16.05004884 67.171875 21.46875 C68.40421875 21.48292969 69.6365625 21.49710938 70.90625 21.51171875 C81.58778364 21.76351937 91.7284253 22.07177297 100.3125 29.26171875 C105.74521043 34.97976061 109.22399214 41.62979659 109.921875 49.53125 C109.59462552 57.63349566 105.06463004 64.57588672 101.171875 71.46875 C100.40714833 72.83010554 99.64268765 74.19161051 98.87841797 75.55322266 C96.6466069 79.52715765 94.41010948 83.49842965 92.171875 87.46875 C93.00015305 87.47461624 93.82843109 87.48048248 94.68180847 87.48652649 C102.49471309 87.54447524 110.3073325 87.6165644 118.11995983 87.70446491 C122.13634922 87.7491568 126.15263746 87.78841535 130.16918945 87.81518555 C134.04676804 87.84123061 137.92395712 87.88164101 141.80129433 87.93193626 C143.27917949 87.94859695 144.75713202 87.96011622 146.23509789 87.96636391 C148.30843124 87.97601415 150.38076996 88.0040817 152.45385742 88.03637695 C153.63300217 88.04748001 154.81214691 88.05858307 156.02702332 88.07002258 C160.4217352 88.62721647 162.90846246 90.16274362 165.96011353 93.317276 C167.47636951 96.00937787 167.55233882 97.80962183 167.56005859 100.89233398 C167.56951508 101.97703476 167.57897156 103.06173553 167.5887146 104.17930603 C167.57960556 105.9293972 167.57960556 105.9293972 167.5703125 107.71484375 C167.57318268 108.91810806 167.57605286 110.12137238 167.57901001 111.36109924 C167.58105134 113.90553254 167.57551675 116.4499815 167.56298828 118.99438477 C167.54695063 122.88789018 167.56282854 126.78035525 167.58203125 130.67382812 C167.58004856 133.14583562 167.57620435 135.61784248 167.5703125 138.08984375 C167.57638519 139.25454697 167.58245789 140.41925018 167.5887146 141.61924744 C167.57925812 142.70710037 167.56980164 143.79495331 167.56005859 144.91577148 C167.55767181 145.8696727 167.55528503 146.82357391 167.55282593 147.80638123 C166.96068017 151.94473677 165.19632719 154.59495254 162.046875 157.28125 C159.14071554 158.48162021 157.57493262 158.5959273 154.4921875 158.54296875 C153.27813232 158.52689575 153.27813232 158.52689575 152.03955078 158.51049805 C151.42321777 158.49672119 150.80688477 158.48294434 150.171875 158.46875 C150.17464038 159.53611735 150.17740576 160.60348471 150.18025494 161.70319653 C150.24681392 187.65850768 150.29613342 213.61380778 150.32731152 239.56918621 C150.34278924 252.12094338 150.36389609 264.67264422 150.39819336 277.22436523 C150.42806795 288.16272815 150.44744342 299.10105027 150.45414048 310.03945285 C150.45805602 315.83280251 150.46727696 321.62603546 150.48906517 327.41934776 C150.5093996 332.87017918 150.51571493 338.3208456 150.51119804 343.77171135 C150.51202461 345.77402899 150.51800828 347.77635205 150.52949142 349.77863693 C150.54438783 352.50962605 150.54083899 355.23998985 150.53263855 357.97099304 C150.54137707 358.76574608 150.5501156 359.56049912 150.55911893 360.37933558 C150.52235731 364.89981265 150.15279244 367.98166609 147.171875 371.46875 C142.61861728 374.34773896 137.16760233 373.75279324 131.96142578 373.73617554 C130.92345919 373.74070665 129.88549259 373.74523776 128.81607246 373.74990618 C125.33306574 373.76258099 121.85021476 373.76092782 118.3671875 373.75927734 C115.8721293 373.76526055 113.37707295 373.77206562 110.88201904 373.77963257 C104.80565383 373.79548083 98.72935001 373.80174172 92.65296984 373.80285732 C87.71462483 373.80380793 82.77629262 373.80791882 77.83795166 373.81425858 C63.83708201 373.83186696 49.836243 373.84109779 35.8353622 373.83959763 C34.70352783 373.83947776 34.70352783 373.83947776 33.54882812 373.83935547 C32.79335103 373.83927371 32.03787394 373.83919195 31.2595036 373.83910771 C19.00907888 373.83829436 6.75877699 373.85744516 -5.4916122 373.8856322 C-18.06997144 373.91434565 -30.64827073 373.92817343 -43.22666359 373.92644465 C-50.28867405 373.92578033 -57.35055566 373.93129104 -64.41253662 373.95280075 C-71.05111883 373.97289145 -77.68947496 373.97235471 -84.32808685 373.95776749 C-86.76740668 373.95566991 -89.20674328 373.96043633 -91.64603424 373.9724884 C-94.97023891 373.98785181 -98.29349259 373.97869109 -101.61767578 373.96322632 C-102.58800184 373.97351344 -103.5583279 373.98380057 -104.55805779 373.99439943 C-108.74308088 373.95123008 -111.18167932 373.85082757 -114.84127808 371.68784523 C-119.01769236 367.02323775 -119.11367046 363.26562265 -119.06863403 357.12921143 C-119.07034288 356.28049839 -119.07205173 355.43178535 -119.07381237 354.55735373 C-119.0771107 351.70904879 -119.06609788 348.86097861 -119.05517578 346.01269531 C-119.05461174 343.97272243 -119.05492808 341.93274914 -119.05606079 339.89277649 C-119.05663559 334.34976627 -119.04486071 328.80684227 -119.03091288 323.26385212 C-119.01842668 317.47292325 -119.01723668 311.6819925 -119.01486206 305.89105225 C-119.00864108 294.92284128 -118.9922219 283.95467009 -118.97216308 272.98647666 C-118.9498233 260.50053269 -118.93881549 248.01458684 -118.92877221 235.52862787 C-118.90785622 209.84197985 -118.87266823 184.15536715 -118.828125 158.46875 C-121.78833008 158.55725098 -121.78833008 158.55725098 -124.74853516 158.64575195 C-128.18091007 158.35360922 -130.24583175 156.62066104 -132.828125 154.46875 C-135.05701179 151.12541982 -135.09164841 149.99168006 -135.13452148 146.08276367 C-135.15050888 144.98119431 -135.16649628 143.87962494 -135.18296814 142.74467468 C-135.18833084 141.55404922 -135.19369354 140.36342377 -135.19921875 139.13671875 C-135.21276146 137.2999633 -135.21276146 137.2999633 -135.22657776 135.42610168 C-135.241098 132.83283947 -135.24997138 130.23954047 -135.25366211 127.64624023 C-135.26554735 123.6821497 -135.31471077 119.71962074 -135.36523438 115.75585938 C-135.37469957 113.23698677 -135.38193414 110.71810459 -135.38671875 108.19921875 C-135.40625107 107.01466599 -135.42578339 105.83011322 -135.44590759 104.60966492 C-135.3956655 95.42526925 -135.3956655 95.42526925 -132.41821289 91.7355957 C-128.50843667 88.31375838 -126.5008462 88.32983681 -121.35888672 88.26342773 C-120.69535187 88.25352814 -120.03181702 88.24362854 -119.34817505 88.23342896 C-117.15142403 88.20180084 -114.95465137 88.17705146 -112.7578125 88.15234375 C-111.23608839 88.13177534 -109.71437 88.1107789 -108.19265747 88.08937073 C-104.1846785 88.03413829 -100.17664787 87.98473422 -96.1685791 87.93652344 C-92.07978713 87.88631695 -87.99107032 87.83062644 -83.90234375 87.77539062 C-75.87766768 87.66779472 -67.8529288 87.56635296 -59.828125 87.46875 C-60.49400635 86.34231079 -60.49400635 86.34231079 -61.17333984 85.19311523 C-62.83084666 82.38064587 -64.48117604 79.56420999 -66.12695312 76.74487305 C-66.83802556 75.53001677 -67.55184608 74.31676435 -68.26855469 73.10522461 C-69.30365933 71.35434078 -70.32844485 69.5977527 -71.3515625 67.83984375 C-72.278479 66.2609436 -72.278479 66.2609436 -73.22412109 64.65014648 C-76.82208727 57.51390641 -78.3311001 49.90465994 -76.17578125 42.109375 C-72.90767267 33.97416908 -67.66945569 27.74798349 -59.625 24.16015625 C-56.2873384 22.87588211 -53.71477436 22.34845287 -50.16015625 22.37109375 C-49.26748047 22.37431641 -48.37480469 22.37753906 -47.45507812 22.38085938 C-46.52630859 22.38923828 -45.59753906 22.39761719 -44.640625 22.40625 C-43.70025391 22.41076172 -42.75988281 22.41527344 -41.79101562 22.41992188 C-39.46998788 22.43170374 -37.14908856 22.44815442 -34.828125 22.46875 C-34.53164062 21.53933594 -34.23515625 20.60992187 -33.9296875 19.65234375 C-31.53582571 12.7339134 -26.8460017 7.52983346 -20.828125 3.46875 C-13.85360474 0.19461151 -7.63621587 0.00131697 0 0 Z " fill="#FD5693" transform="translate(239.828125,57.53125)"/>
<path d="M0 0 C0.33 0 0.66 0 1 0 C1 50.82 1 101.64 1 154 C30.04 154 59.08 154 89 154 C79.7046986 173.75251547 79.7046986 173.75251547 75.25 180.5625 C74.74686279 181.34423584 74.24372559 182.12597168 73.7253418 182.93139648 C66.0378172 194.72100234 57.59351095 205.69999019 48 216 C46.80759878 217.37075183 45.61986117 218.74557863 44.4375 220.125 C38.42047723 226.99569648 31.96831532 233.00815 24.83984375 238.71875 C23.00096157 240.19592633 21.17921177 241.6947954 19.37890625 243.21875 C6.69014155 253.92784116 -7.33039165 262.30595286 -22 270 C-23.07314453 270.57016846 -23.07314453 270.57016846 -24.16796875 271.15185547 C-46.45300022 282.84743779 -71.17563702 290.22016678 -96 294 C-97.16225098 294.18328857 -98.32450195 294.36657715 -99.52197266 294.55541992 C-110.89170021 296.17853462 -122.15300951 296.35810603 -133.625 296.3125 C-134.59999451 296.31034485 -135.57498901 296.3081897 -136.57952881 296.30596924 C-150.59915465 296.25620427 -164.23851194 295.8981147 -178 293 C-179.49974365 292.70198486 -179.49974365 292.70198486 -181.02978516 292.39794922 C-225.18974864 283.51271165 -265.9434491 263.78913405 -299 233 C-300.37075183 231.80759878 -301.74557863 230.61986117 -303.125 229.4375 C-309.99569648 223.42047723 -316.00815 216.96831532 -321.71875 209.83984375 C-323.19592633 208.00096157 -324.6947954 206.17921177 -326.21875 204.37890625 C-336.93866448 191.67731743 -345.22768574 177.64397408 -353 163 C-353.88365234 161.34677734 -353.88365234 161.34677734 -354.78515625 159.66015625 C-356 157 -356 157 -356 154 C-327.29 154 -298.58 154 -269 154 C-268.75 180.125 -268.75 180.125 -268.70214844 188.34423828 C-268.67277389 190.50295133 -268.64194725 192.66164533 -268.609375 194.8203125 C-268.60768311 196.49081665 -268.60768311 196.49081665 -268.60595703 198.19506836 C-268.49180049 204.38875674 -268.23768024 208.32705031 -264 213 C-261.68695151 214.15652425 -260.37507743 214.12627389 -257.80105877 214.12863445 C-256.91537769 214.1318589 -256.02969661 214.13508335 -255.11717671 214.1384055 C-254.13811213 214.1368569 -253.15904754 214.1353083 -252.15031433 214.13371277 C-250.59720935 214.1371111 -250.59720935 214.1371111 -249.01272851 214.14057809 C-245.52043743 214.14694142 -242.02818493 214.14608723 -238.53588867 214.14526367 C-236.04127451 214.14825373 -233.54666081 214.1516559 -231.05204773 214.15544128 C-224.96525647 214.16338002 -218.87848055 214.16649665 -212.79168554 214.16705366 C-207.84469175 214.16752836 -202.89770117 214.16958077 -197.95070839 214.17275429 C-183.93211916 214.18156453 -169.9135376 214.18617317 -155.89494558 214.18542381 C-155.13869313 214.18538386 -154.38244068 214.1853439 -153.60327148 214.18530273 C-152.84609789 214.18526185 -152.08892429 214.18522097 -151.30880604 214.18517885 C-139.03883061 214.18477244 -126.76888588 214.19433979 -114.49891933 214.2084411 C-101.9071015 214.22279834 -89.31529864 214.22971162 -76.72347242 214.22884732 C-69.65139649 214.22851509 -62.57935273 214.2312735 -55.50728416 214.24202538 C-48.8564792 214.25207174 -42.20573066 214.25180166 -35.55491829 214.24450874 C-33.11076636 214.24345994 -30.66661024 214.24584321 -28.22246552 214.2518692 C-24.89177499 214.25955041 -21.56132176 214.2549699 -18.2306366 214.24723816 C-17.25826418 214.25238172 -16.28589176 214.25752529 -15.2840535 214.26282471 C-8.86716514 214.32102553 -8.86716514 214.32102553 -3 212 C-0.14398506 208.46849213 -0.71103226 203.94938376 -0.7215271 199.62249756 C-0.7128385 198.34330267 -0.7128385 198.34330267 -0.70397437 197.03826547 C-0.68694771 194.17618832 -0.68409556 191.31427217 -0.68115234 188.45214844 C-0.67185601 186.40231937 -0.66168778 184.3524941 -0.65071106 182.30267334 C-0.62336378 176.73284797 -0.60824762 171.16304795 -0.59528303 165.59317303 C-0.57967318 159.77418286 -0.55287614 153.95524464 -0.5272522 148.1362915 C-0.48042638 137.11499519 -0.44370067 126.09368915 -0.41057932 115.07234406 C-0.37238481 102.52590412 -0.32296766 89.97951629 -0.27259517 77.43312025 C-0.16921874 51.62211878 -0.07997691 25.81108383 0 0 Z " fill="#D1CEE8" transform="translate(390,216)"/>
<path d="M0 0 C0.91989212 -0.00137466 1.83978424 -0.00274933 2.78755188 -0.00416565 C3.79959183 -0.00057037 4.81163177 0.0030249 5.8543396 0.00672913 C6.91777084 0.0065831 7.98120209 0.00643707 9.07685852 0.00628662 C12.60475682 0.00698533 16.13260283 0.01477581 19.66049194 0.02259827 C22.10144014 0.02446259 24.5423887 0.02588643 26.9833374 0.02688599 C33.41790799 0.03071 39.85245612 0.04053932 46.28701782 0.05158997 C54.00208065 0.06360183 61.71715097 0.06820688 69.43222046 0.07404327 C81.16197242 0.08375112 92.89167508 0.10290851 104.62142944 0.12025452 C104.62142944 23.22025452 104.62142944 46.32025452 104.62142944 70.12025452 C105.94142944 70.12025452 107.26142944 70.12025452 108.62142944 70.12025452 C108.86959114 74.85212545 109.05047237 79.58018123 109.17074585 84.31703186 C109.22088768 85.92577588 109.28902887 87.53406732 109.37582397 89.14125061 C109.64667893 94.28749479 109.73099238 99.06714941 108.62142944 104.12025452 C105.71096199 107.28865888 102.57271494 108.5693254 98.62142944 110.12025452 C84.62206479 120.85872298 75.04010779 135.76787198 71.62142944 153.12025452 C71.23651702 157.11139812 71.18991672 161.05048872 71.24642944 165.05775452 C71.25803101 166.11607483 71.26963257 167.17439514 71.28158569 168.26478577 C71.65388592 186.00379643 78.08384384 201.89612879 90.73861694 214.48744202 C96.23602096 219.50810639 101.95949634 223.78928797 108.62142944 227.12025452 C108.62142944 246.26025452 108.62142944 265.40025452 108.62142944 285.12025452 C84.61407879 285.28068975 84.61407879 285.28068975 74.38510132 285.31556702 C67.40377655 285.33948363 60.4226615 285.36778496 53.4414978 285.42201233 C47.81346525 285.46545573 42.1856576 285.48938875 36.55747032 285.49976349 C34.40963894 285.50715751 32.26181995 285.52159618 30.11408424 285.54317474 C27.10690279 285.57218818 24.10065204 285.57621131 21.09335327 285.57435608 C20.20430801 285.58873718 19.31526276 285.60311829 18.39927673 285.61793518 C14.37375409 285.59104123 12.17110313 285.44972233 8.6544342 283.34187317 C4.4607418 278.75910708 4.33647098 274.83714702 4.38092041 268.78071594 C4.37921156 267.9320029 4.37750271 267.08328987 4.37574208 266.20885825 C4.37244375 263.36055331 4.38345656 260.51248313 4.39437866 257.66419983 C4.3949427 255.62422694 4.39462636 253.58425365 4.39349365 251.54428101 C4.39291886 246.00127079 4.40469373 240.45834679 4.41864157 234.91535664 C4.43112777 229.12442777 4.43231776 223.33349701 4.43469238 217.54255676 C4.44091336 206.5743458 4.45733254 195.60617461 4.47739136 184.63798118 C4.49973114 172.15203721 4.51073896 159.66609136 4.52078223 147.18013239 C4.54169822 121.49348436 4.57688621 95.80687167 4.62142944 70.12025452 C2.64795939 70.17925517 0.67448934 70.23825582 -1.29898071 70.29725647 C-4.73135563 70.00511373 -6.79627731 68.27216556 -9.37857056 66.12025452 C-11.60745734 62.77692434 -11.64209397 61.64318457 -11.68496704 57.73426819 C-11.70095444 56.63269882 -11.71694183 55.53112946 -11.7334137 54.3961792 C-11.7387764 53.20555374 -11.7441391 52.01492828 -11.74966431 50.78822327 C-11.75869278 49.56371964 -11.76772125 48.339216 -11.77702332 47.0776062 C-11.79154356 44.48434399 -11.80041693 41.89104499 -11.80410767 39.29774475 C-11.8159929 35.33365422 -11.86515633 31.37112525 -11.91567993 27.40736389 C-11.92514512 24.88849129 -11.9323797 22.36960911 -11.93716431 19.85072327 C-11.95669662 18.6661705 -11.97622894 17.48161774 -11.99635315 16.26116943 C-11.94611106 7.07677377 -11.94611106 7.07677377 -8.96865845 3.38710022 C-5.66915209 0.49937126 -4.25685182 -0.00489293 0 0 Z " fill="#F9C600" transform="translate(116.37857055664063,145.87974548339844)"/>
<path d="M0 0 C26.75257583 -0.12032643 26.75257583 -0.12032643 38.14648438 -0.14648438 C45.92446015 -0.16442544 53.70233008 -0.1856616 61.48022461 -0.22631836 C67.75014723 -0.25888793 74.01995637 -0.27684808 80.28995705 -0.28463173 C82.68338622 -0.29017952 85.07680911 -0.30101282 87.47019005 -0.31719017 C90.81970064 -0.33893204 94.16874087 -0.34196822 97.51831055 -0.34057617 C98.51021393 -0.351362 99.50211731 -0.36214783 100.52407837 -0.3732605 C109.07946816 -0.33472589 109.07946816 -0.33472589 113 3 C115.96483038 6.06478468 116.37764042 8.21341074 116.38818359 12.42358398 C116.39764008 13.50828476 116.40709656 14.59298553 116.4168396 15.71055603 C116.41076691 16.87728348 116.40469421 18.04401093 116.3984375 19.24609375 C116.40130768 20.44935806 116.40417786 21.65262238 116.40713501 22.89234924 C116.40917634 25.43678254 116.40364175 27.9812315 116.39111328 30.52563477 C116.37507563 34.41914018 116.39095354 38.31160525 116.41015625 42.20507812 C116.40817356 44.67708562 116.40432935 47.14909248 116.3984375 49.62109375 C116.40451019 50.78579697 116.41058289 51.95050018 116.4168396 53.15049744 C116.40265488 54.78227684 116.40265488 54.78227684 116.38818359 56.44702148 C116.38579681 57.4009227 116.38341003 58.35482391 116.38095093 59.33763123 C115.78880517 63.47598677 114.02445219 66.12620254 110.875 68.8125 C107.96884054 70.01287021 106.40305762 70.1271773 103.3203125 70.07421875 C102.10625732 70.05814575 102.10625732 70.05814575 100.86767578 70.04174805 C100.25134277 70.02797119 99.63500977 70.01419434 99 70 C99.00276538 71.06736735 99.00553076 72.13473471 99.00837994 73.23444653 C99.07493892 99.18975768 99.12425842 125.14505778 99.15543652 151.10043621 C99.17091424 163.65219338 99.19202109 176.20389422 99.22631836 188.75561523 C99.25619295 199.69397815 99.27556842 210.63230027 99.28226548 221.57070285 C99.28618102 227.36405251 99.29540196 233.15728546 99.31719017 238.95059776 C99.3375246 244.40142918 99.34383993 249.8520956 99.33932304 255.30296135 C99.34014961 257.30527899 99.34613328 259.30760205 99.35761642 261.30988693 C99.37251283 264.04087605 99.36896399 266.77123985 99.36076355 269.50224304 C99.36950207 270.29699608 99.3782406 271.09174912 99.38724393 271.91058558 C99.35033261 276.44947068 98.8278964 279.39727389 96 283 C91.60277396 285.70954697 86.71223498 285.26836414 81.71166992 285.22705078 C80.78435059 285.22734283 79.85703125 285.22763489 78.90161133 285.22793579 C75.84446776 285.22654535 72.78756961 285.21099749 69.73046875 285.1953125 C67.6076928 285.19158136 65.48491513 285.18873486 63.36213684 285.18673706 C57.78080472 285.1791086 52.19957705 285.15946679 46.61828613 285.1373291 C40.92066867 285.11685376 35.22303429 285.10773173 29.52539062 285.09765625 C18.35021458 285.07622023 7.17511598 285.04209371 -4 285 C-4.3258 277.59456698 -4.57380234 270.19069859 -4.72537041 262.77952671 C-4.79816501 259.3368368 -4.89663678 255.89907801 -5.05615234 252.45922852 C-6.06184658 230.20651807 -6.06184658 230.20651807 -2.65219116 224.90393066 C1.03721982 221.32738744 5.26276314 219.7880207 10 218 C21.43982863 209.07151319 30.72922421 192.73722198 32.75 178.40234375 C33.7176362 165.23341983 34.38851823 152.33334763 29 140 C28.56429687 138.97777344 28.12859375 137.95554687 27.6796875 136.90234375 C22.95411228 126.68942025 14.53885555 113.27748987 3.50537109 109.04248047 C0.3360859 107.67266183 -1.65186304 106.55428565 -4 104 C-5.28146454 98.17642975 -4.94476678 92.54611544 -4.625 86.625 C-4.5748022 85.01446042 -4.52918117 83.40377127 -4.48828125 81.79296875 C-4.37842265 77.85827305 -4.20614866 73.93077927 -4 70 C-2.68 70 -1.36 70 0 70 C0 46.9 0 23.8 0 0 Z " fill="#FDD302" transform="translate(291,146)"/>
<path d="M0 0 C4.50347992 2.61963722 8.47882329 5.50723273 12.37109375 8.9609375 C12.96019531 9.45722656 13.54929687 9.95351563 14.15625 10.46484375 C24.59035465 19.94823271 33.61818473 36.04472874 34.51635742 50.26000977 C34.71806405 72.62341866 32.19747619 90.90720296 16.37109375 107.9609375 C15.84257812 108.5796875 15.3140625 109.1984375 14.76953125 109.8359375 C7.45935882 117.90233466 -4.75125304 125.88386928 -15.75390625 127.21875 C-27.57510931 126.82760725 -39.46363121 117.77627218 -47.62890625 109.9609375 C-49.06447548 108.28948852 -50.48237262 106.60263658 -51.87890625 104.8984375 C-54.83397224 101.30585162 -54.83397224 101.30585162 -59.50390625 100.5234375 C-61.05078125 100.74 -61.05078125 100.74 -62.62890625 100.9609375 C-64.62890625 98.9609375 -64.62890625 98.9609375 -64.67578125 96.78125 C-64.5778125 95.89179688 -64.47984375 95.00234375 -64.37890625 94.0859375 C-64.27191406 93.10367188 -64.16492188 92.12140625 -64.0546875 91.109375 C-63.50036068 87.01040784 -62.80024137 82.9466793 -62.03125 78.8828125 C-61.89847656 77.91859375 -61.76570313 76.954375 -61.62890625 75.9609375 C-61.42394531 74.87554687 -61.21898437 73.79015625 -61.0078125 72.671875 C-62.0060684 66.70745296 -66.27469671 63.77826235 -70.62890625 59.8359375 C-72.3274196 58.28279241 -74.01548381 56.71812025 -75.69140625 55.140625 C-76.44550781 54.45726074 -77.19960937 53.77389648 -77.9765625 53.06982422 C-79.62890625 50.9609375 -79.62890625 50.9609375 -80 48.32470703 C-79.62890625 45.9609375 -79.62890625 45.9609375 -77.62890625 43.9609375 C-74.80859375 43.546875 -74.80859375 43.546875 -71.50390625 43.3359375 C-70.40820312 43.26117188 -69.3125 43.18640625 -68.18359375 43.109375 C-67.34054688 43.06039062 -66.4975 43.01140625 -65.62890625 42.9609375 C-65.49355469 42.38988281 -65.35820312 41.81882812 -65.21875 41.23046875 C-60.20170418 22.33393091 -48.19293352 8.67770858 -31.62890625 -1.0390625 C-19.27169964 -7.65085201 -11.99217149 -6.4840161 0 0 Z " fill="#FDA3C5" transform="translate(290.62890625,251.0390625)"/>
<path d="M0 0 C20.13 0 40.26 0 61 0 C61.20625 5.48625 61.4125 10.9725 61.625 16.625 C61.76156006 19.20562256 61.76156006 19.20562256 61.90087891 21.83837891 C62.23622769 32.65421302 62.23622769 32.65421302 58.91186523 36.27319336 C56.33074213 37.78962417 53.78267168 38.90776646 51 40 C37.00063535 50.73846847 27.41867835 65.64761746 24 83 C23.61508758 86.9911436 23.56848728 90.93023421 23.625 94.9375 C23.63660156 95.99582031 23.64820313 97.05414063 23.66015625 98.14453125 C24.03245647 115.88354192 30.4624144 131.77587427 43.1171875 144.3671875 C48.61459151 149.38785187 54.3380669 153.66903345 61 157 C61 176.14 61 195.28 61 215 C52.193125 215.0825 43.38625 215.165 34.3125 215.25 C31.53884033 215.28641602 28.76518066 215.32283203 25.9074707 215.36035156 C23.70524876 215.37203569 21.50301818 215.38222817 19.30078125 215.390625 C18.16040405 215.41108887 17.02002686 215.43155273 15.84509277 215.45263672 C7.80823596 215.45618226 7.80823596 215.45618226 3.85620117 213.22558594 C-0.06207041 208.52757677 -0.28457565 204.66473249 -0.24050903 198.66046143 C-0.24221788 197.81174839 -0.24392673 196.96303535 -0.24568737 196.08860373 C-0.2489857 193.24029879 -0.23797288 190.39222861 -0.22705078 187.54394531 C-0.22648674 185.50397243 -0.22680308 183.46399914 -0.22793579 181.42402649 C-0.22851059 175.88101627 -0.21673571 170.33809227 -0.20278788 164.79510212 C-0.19030168 159.00417325 -0.18911168 153.2132425 -0.18673706 147.42230225 C-0.18051608 136.45409128 -0.1640969 125.48592009 -0.14403808 114.51772666 C-0.1216983 102.03178269 -0.11069049 89.54583684 -0.10064721 77.05987787 C-0.07973122 51.37322477 -0.04304725 25.68662621 0 0 Z " fill="#FDD302" transform="translate(164,216)"/>
<path d="M0 0 C12.21 0 24.42 0 37 0 C37 10.89 37 21.78 37 33 C33.7 32.01 30.4 31.02 27 30 C15.19168188 29.65269653 4.1486806 37.05037991 -4.47265625 44.5703125 C-13.59395809 53.33916837 -20.34181993 63.61969147 -23.8125 75.8671875 C-25 78 -25 78 -27.78515625 78.890625 C-29.40744141 79.06851563 -29.40744141 79.06851563 -31.0625 79.25 C-34.84860148 79.38249796 -34.84860148 79.38249796 -38 81 C-38.41550062 83.37439921 -38.41550062 83.37439921 -38 86 C-36.3427944 88.1195886 -36.3427944 88.1195886 -34.02734375 89.96875 C-33.2084668 90.69819824 -32.38958984 91.42764648 -31.54589844 92.17919922 C-30.68512695 92.94506348 -29.82435547 93.71092773 -28.9375 94.5 C-20.42048971 102.52907347 -20.42048971 102.52907347 -18.95703125 107.6484375 C-19.26049719 110.99060903 -19.96343156 113.81244963 -21 117 C-21.38255741 119.16183448 -21.73760509 121.3287511 -22.0625 123.5 C-22.23910156 124.4384375 -22.41570312 125.376875 -22.59765625 126.34375 C-22.99320004 128.95510704 -23.14387429 131.36385176 -23 134 C-22.67 134.33 -22.34 134.66 -22 135 C-20.93007812 134.90847656 -19.86015625 134.81695312 -18.7578125 134.72265625 C-15 135 -15 135 -12.3671875 137.30859375 C-11.52140162 138.33939005 -10.69135668 139.38324361 -9.875 140.4375 C-1.78732315 149.99746531 8.73470752 157.74875136 21 161 C26.70940549 161.32956007 31.49183447 159.57376158 37 158 C37 176.81 37 195.62 37 215 C16.54 215 -3.92 215 -25 215 C-25 195.86 -25 176.72 -25 157 C-27.97 156.01 -27.97 156.01 -31 155 C-34.5697276 152.61645147 -37.76561539 149.81753069 -41 147 C-41.70640625 146.39027344 -42.4128125 145.78054688 -43.140625 145.15234375 C-54.04296107 135.04407546 -62.13711174 119.42440081 -63.17700195 104.45141602 C-63.66148634 83.12445174 -61.00347436 66.120007 -46.5 49.5625 C-45.01869627 48.02345053 -43.51988842 46.50095743 -42 45 C-41.39929688 44.37738281 -40.79859375 43.75476563 -40.1796875 43.11328125 C-30.06221563 33.3680973 -14.15401644 26 0 26 C0 17.42 0 8.84 0 0 Z " fill="#FD93BA" transform="translate(250,216)"/>
<path d="M0 0 C0.91989212 -0.00137466 1.83978424 -0.00274933 2.78755188 -0.00416565 C3.79959183 -0.00057037 4.81163177 0.0030249 5.8543396 0.00672913 C6.91777084 0.0065831 7.98120209 0.00643707 9.07685852 0.00628662 C12.60475682 0.00698533 16.13260283 0.01477581 19.66049194 0.02259827 C22.10144014 0.02446259 24.5423887 0.02588643 26.9833374 0.02688599 C33.41790799 0.03071 39.85245612 0.04053932 46.28701782 0.05158997 C54.00208065 0.06360183 61.71715097 0.06820688 69.43222046 0.07404327 C81.16197242 0.08375112 92.89167508 0.10290851 104.62142944 0.12025452 C104.62142944 23.22025452 104.62142944 46.32025452 104.62142944 70.12025452 C71.95142944 70.12025452 39.28142944 70.12025452 5.62142944 70.12025452 C5.62142944 138.43025452 5.62142944 206.74025452 5.62142944 277.12025452 C5.29142944 277.12025452 4.96142944 277.12025452 4.62142944 277.12025452 C4.62142944 208.81025452 4.62142944 140.50025452 4.62142944 70.12025452 C1.98142944 70.12025452 -0.65857056 70.12025452 -3.37857056 70.12025452 C-7.13069332 68.10522563 -9.01501151 66.66559309 -11.37857056 63.12025452 C-11.65272522 60.67388916 -11.65272522 60.67388916 -11.68496704 57.73426819 C-11.70095444 56.63269882 -11.71694183 55.53112946 -11.7334137 54.3961792 C-11.7387764 53.20555374 -11.7441391 52.01492828 -11.74966431 50.78822327 C-11.75869278 49.56371964 -11.76772125 48.339216 -11.77702332 47.0776062 C-11.79154356 44.48434399 -11.80041693 41.89104499 -11.80410767 39.29774475 C-11.8159929 35.33365422 -11.86515633 31.37112525 -11.91567993 27.40736389 C-11.92514512 24.88849129 -11.9323797 22.36960911 -11.93716431 19.85072327 C-11.95669662 18.6661705 -11.97622894 17.48161774 -11.99635315 16.26116943 C-11.94611106 7.07677377 -11.94611106 7.07677377 -8.96865845 3.38710022 C-5.66915209 0.49937126 -4.25685182 -0.00489293 0 0 Z " fill="#E7B802" transform="translate(116.37857055664063,145.87974548339844)"/>
<path d="M0 0 C26.75257583 -0.12032643 26.75257583 -0.12032643 38.14648438 -0.14648438 C45.92446015 -0.16442544 53.70233008 -0.1856616 61.48022461 -0.22631836 C67.75014723 -0.25888793 74.01995637 -0.27684808 80.28995705 -0.28463173 C82.68338622 -0.29017952 85.07680911 -0.30101282 87.47019005 -0.31719017 C90.81970064 -0.33893204 94.16874087 -0.34196822 97.51831055 -0.34057617 C98.51021393 -0.351362 99.50211731 -0.36214783 100.52407837 -0.3732605 C109.07946816 -0.33472589 109.07946816 -0.33472589 113 3 C115.96483038 6.06478468 116.37764042 8.21341074 116.38818359 12.42358398 C116.39764008 13.50828476 116.40709656 14.59298553 116.4168396 15.71055603 C116.41076691 16.87728348 116.40469421 18.04401093 116.3984375 19.24609375 C116.40130768 20.44935806 116.40417786 21.65262238 116.40713501 22.89234924 C116.40917634 25.43678254 116.40364175 27.9812315 116.39111328 30.52563477 C116.37507563 34.41914018 116.39095354 38.31160525 116.41015625 42.20507812 C116.40817356 44.67708562 116.40432935 47.14909248 116.3984375 49.62109375 C116.40451019 50.78579697 116.41058289 51.95050018 116.4168396 53.15049744 C116.40265488 54.78227684 116.40265488 54.78227684 116.38818359 56.44702148 C116.38579681 57.4009227 116.38341003 58.35482391 116.38095093 59.33763123 C115.77886897 63.5454283 114.13069885 66.00347906 110.96760559 68.79121399 C106.50462252 70.60910769 102.29213432 70.39248611 97.51831055 70.34057617 C96.46419479 70.34101425 95.41007904 70.34145233 94.32402039 70.34190369 C90.84473051 70.33981604 87.36592431 70.31648542 83.88671875 70.29296875 C81.47248091 70.28737273 79.05823966 70.28310266 76.64399719 70.28010559 C70.29322892 70.26865738 63.94266685 70.23919008 57.59197998 70.20599365 C49.97032685 70.16989353 42.34860474 70.15613153 34.72689056 70.13863373 C23.15111702 70.10955307 11.5757958 70.05206505 0 70 C0 46.9 0 23.8 0 0 Z " fill="#F9C500" transform="translate(291,146)"/>
<path d="M0 0 C6.7001735 4.73405701 10.38895736 10.20350583 13.3828125 17.68359375 C14.61515625 17.69777344 15.8475 17.71195313 17.1171875 17.7265625 C27.79872114 17.97836312 37.9393628 18.28661672 46.5234375 25.4765625 C51.95614793 31.19460436 55.43492964 37.84464034 56.1328125 45.74609375 C55.85894505 52.30978366 53.00324973 57.62925762 49.77197266 63.18408203 C48.10678333 66.14252415 46.92247938 68.93644824 45.94335938 72.18286133 C44.12169259 77.37001579 42.05598035 81.56287257 37.3828125 84.68359375 C27.19764232 87.45264712 16.07433268 86.35906503 5.63751221 85.85089111 C1.66351263 85.67588387 -2.31230783 85.59912067 -6.2890625 85.51367188 C-14.07011603 85.33218876 -21.8420922 85.04277377 -29.6171875 84.68359375 C-29.63177002 83.5534082 -29.64635254 82.42322266 -29.66137695 81.25878906 C-29.71939435 77.06152876 -29.79662687 72.86480302 -29.87963867 68.66796875 C-29.91287186 66.85230186 -29.94090884 65.03653207 -29.96362305 63.22070312 C-29.99719891 60.60892933 -30.04951512 57.99809721 -30.10546875 55.38671875 C-30.11185867 54.57616028 -30.1182486 53.76560181 -30.12483215 52.93048096 C-30.21016691 49.6519418 -30.39477351 47.11621274 -31.90698242 44.17480469 C-34.24253941 42.13831902 -36.4644067 42.15535311 -39.484375 42.0546875 C-42.72209284 43.00939917 -44.39050102 45.23579032 -46.6171875 47.68359375 C-52.74195603 37.27969007 -56.60032346 29.05248615 -54.6171875 16.68359375 C-52.98853108 11.14104571 -49.94888187 7.48703271 -45.6171875 3.68359375 C-44.8540625 2.98234375 -44.0909375 2.28109375 -43.3046875 1.55859375 C-32.00790128 -6.32288501 -12.02174247 -6.18611529 0 0 Z " fill="#FD76A8" transform="translate(293.6171875,61.31640625)"/>
<path d="M0 0 C0.33 0 0.66 0 1 0 C1 65.01 1 130.02 1 197 C4.3 197 7.6 197 11 197 C15.65647477 199.22986116 18.04987103 200.66388114 21 204.8125 C22.51068124 209.62779645 23.04055778 213.51422309 21.0859375 218.18359375 C18.40096145 222.90395487 16.16605929 224.98402062 11 227 C7.10791722 227.44416935 3.23672302 227.4132733 -0.67721558 227.39440918 C-2.45278389 227.40354584 -2.45278389 227.40354584 -4.26422226 227.41286707 C-7.54177913 227.42662171 -10.81901729 227.42695258 -14.09658837 227.4214921 C-17.63453122 227.41881959 -21.17241021 227.43335784 -24.71032715 227.44558716 C-31.63847599 227.46663402 -38.56654114 227.47118244 -45.49471818 227.46939927 C-51.12666821 227.46809127 -56.75859214 227.47189772 -62.39053726 227.47932434 C-64.0132666 227.48142355 -65.63599594 227.48352115 -67.25872529 227.48561716 C-68.06642267 227.48666069 -68.87412006 227.48770422 -69.70629312 227.48877937 C-84.97955111 227.50767873 -100.25276107 227.50663247 -115.52602591 227.49981004 C-129.49447903 227.49423476 -143.46274874 227.51505986 -157.431159 227.54817051 C-171.77804083 227.58191401 -186.12483481 227.59707502 -200.47175705 227.59245348 C-208.52481701 227.59020946 -216.57770745 227.59544205 -224.63073349 227.62034607 C-231.48667542 227.64136776 -238.34235487 227.64494272 -245.19830762 227.62604648 C-248.69512633 227.61689379 -252.19145576 227.61573034 -255.68823624 227.63640213 C-259.48221127 227.65454015 -263.27488196 227.64188305 -267.06881714 227.62145996 C-268.72028647 227.64023673 -268.72028647 227.64023673 -270.40511882 227.65939283 C-277.06187389 227.5825303 -281.979988 226.61085511 -287 222 C-289.78537223 217.29968437 -290.67790686 213.42325487 -290 208 C-288.30897632 203.21883187 -285.68878708 200.00310994 -281.08203125 197.64453125 C-277.12079785 196.41825824 -273.09468426 196.70340315 -269 197 C-268.97421875 197.65226563 -268.9484375 198.30453125 -268.921875 198.9765625 C-268.5396903 204.86568123 -267.8397944 208.46206116 -264 213 C-261.68695151 214.15652425 -260.37507743 214.12627389 -257.80105877 214.12863445 C-256.91537769 214.1318589 -256.02969661 214.13508335 -255.11717671 214.1384055 C-254.13811213 214.1368569 -253.15904754 214.1353083 -252.15031433 214.13371277 C-250.59720935 214.1371111 -250.59720935 214.1371111 -249.01272851 214.14057809 C-245.52043743 214.14694142 -242.02818493 214.14608723 -238.53588867 214.14526367 C-236.04127451 214.14825373 -233.54666081 214.1516559 -231.05204773 214.15544128 C-224.96525647 214.16338002 -218.87848055 214.16649665 -212.79168554 214.16705366 C-207.84469175 214.16752836 -202.89770117 214.16958077 -197.95070839 214.17275429 C-183.93211916 214.18156453 -169.9135376 214.18617317 -155.89494558 214.18542381 C-155.13869313 214.18538386 -154.38244068 214.1853439 -153.60327148 214.18530273 C-152.84609789 214.18526185 -152.08892429 214.18522097 -151.30880604 214.18517885 C-139.03883061 214.18477244 -126.76888588 214.19433979 -114.49891933 214.2084411 C-101.9071015 214.22279834 -89.31529864 214.22971162 -76.72347242 214.22884732 C-69.65139649 214.22851509 -62.57935273 214.2312735 -55.50728416 214.24202538 C-48.8564792 214.25207174 -42.20573066 214.25180166 -35.55491829 214.24450874 C-33.11076636 214.24345994 -30.66661024 214.24584321 -28.22246552 214.2518692 C-24.89177499 214.25955041 -21.56132176 214.2549699 -18.2306366 214.24723816 C-17.25826418 214.25238172 -16.28589176 214.25752529 -15.2840535 214.26282471 C-8.86716514 214.32102553 -8.86716514 214.32102553 -3 212 C-0.14398506 208.46849213 -0.71103226 203.94938376 -0.7215271 199.62249756 C-0.7128385 198.34330267 -0.7128385 198.34330267 -0.70397437 197.03826547 C-0.68694771 194.17618832 -0.68409556 191.31427217 -0.68115234 188.45214844 C-0.67185601 186.40231937 -0.66168778 184.3524941 -0.65071106 182.30267334 C-0.62336378 176.73284797 -0.60824762 171.16304795 -0.59528303 165.59317303 C-0.57967318 159.77418286 -0.55287614 153.95524464 -0.5272522 148.1362915 C-0.48042638 137.11499519 -0.44370067 126.09368915 -0.41057932 115.07234406 C-0.37238481 102.52590412 -0.32296766 89.97951629 -0.27259517 77.43312025 C-0.16921874 51.62211878 -0.07997691 25.81108383 0 0 Z " fill="#C2BBDB" transform="translate(390,216)"/>
<path d="M0 0 C1.98 0 3.96 0 6 0 C7.41785021 2.66604314 8.83430492 5.33281272 10.25 8 C10.64574219 8.74378906 11.04148437 9.48757813 11.44921875 10.25390625 C12.03896484 11.36572266 12.03896484 11.36572266 12.640625 12.5 C13.04869385 13.24427246 13.4567627 13.98854492 13.87719727 14.75537109 C15 17 15 17 15.73022461 19.26416016 C16.5660501 21.65930474 17.24297354 23.1566537 19 25 C23.27063226 26.53035493 27.56432145 26.9424361 32.0625 27.375 C34.42907544 27.64772329 36.79500731 27.92610808 39.16015625 28.2109375 C40.20824463 28.31712402 41.25633301 28.42331055 42.33618164 28.53271484 C45 29 45 29 48 31 C48.43359375 33.36816406 48.43359375 33.36816406 48 36 C46.34765625 38.07714844 46.34765625 38.07714844 44.0625 40.109375 C43.25039063 40.86476563 42.43828125 41.62015625 41.6015625 42.3984375 C39.87493888 43.95913933 38.14059 45.51133919 36.3984375 47.0546875 C31.88526558 51.08263417 31.88526558 51.08263417 29.40234375 56.41479492 C29.37581906 58.70657563 29.56938421 60.75203019 30 63 C30.2165625 64.30904297 30.2165625 64.30904297 30.4375 65.64453125 C30.7159375 66.71767578 30.7159375 66.71767578 31 67.8125 C32.26285674 73.50878997 32.41189836 79.18552776 32 85 C31.67 85.33 31.34 85.66 31 86 C23.61528547 85.70811405 18.19248787 82.06516494 11.93945312 78.41796875 C7.23974919 75.77258321 7.23974919 75.77258321 2.0078125 74.87890625 C-3.31895474 76.86433768 -8.15914846 79.70633628 -13.09960938 82.49414062 C-13.91365234 82.94080078 -14.72769531 83.38746094 -15.56640625 83.84765625 C-16.66384155 84.4665271 -16.66384155 84.4665271 -17.78344727 85.09790039 C-20.38552376 86.15690167 -22.21516272 86.30781762 -25 86 C-27 84 -27 84 -27.046875 81.8203125 C-26.94890625 80.93085938 -26.8509375 80.04140625 -26.75 79.125 C-26.64300781 78.14273438 -26.53601563 77.16046875 -26.42578125 76.1484375 C-25.87145443 72.04947034 -25.17133512 67.9857418 -24.40234375 63.921875 C-24.26957031 62.95765625 -24.13679688 61.9934375 -24 61 C-23.79503906 59.91460937 -23.59007812 58.82921875 -23.37890625 57.7109375 C-24.37716215 51.74651546 -28.64579046 48.81732485 -33 44.875 C-34.69851335 43.32185491 -36.38657756 41.75718275 -38.0625 40.1796875 C-38.81660156 39.49632324 -39.57070312 38.81295898 -40.34765625 38.10888672 C-42 36 -42 36 -42.37109375 33.36376953 C-42 31 -42 31 -40 29 C-37.42138672 28.65966797 -37.42138672 28.65966797 -34.1796875 28.4921875 C-21.90754428 28.09951051 -21.90754428 28.09951051 -11.02539062 23.39404297 C-8.21704598 19.62989274 -6.82842268 15.42235678 -5.58691406 10.93212891 C-4.76479294 8.22569522 -3.44409447 5.9209819 -2 3.5 C-1.608125 2.8090625 -1.21625 2.118125 -0.8125 1.40625 C-0.544375 0.9421875 -0.27625 0.478125 0 0 Z " fill="#FBFBFC" transform="translate(253,266)"/>
<path d="M0 0 C2.97 0.99 5.94 1.98 9 3 C25.35152046 8.40601289 41.88592759 6.97905659 57.75 0.8046875 C60 0 60 0 62 0 C62 18.81 62 37.62 62 57 C41.54 57 21.08 57 0 57 C0 38.19 0 19.38 0 0 Z " fill="#FE76A7" transform="translate(225,374)"/>
<path d="M0 0 C0.89267578 0.00322266 1.78535156 0.00644531 2.70507812 0.00976562 C4.09823242 0.02233398 4.09823242 0.02233398 5.51953125 0.03515625 C6.93008789 0.04192383 6.93008789 0.04192383 8.36914062 0.04882812 C10.69016837 0.06060999 13.01106769 0.07706067 15.33203125 0.09765625 C15.31140625 0.85046875 15.29078125 1.60328125 15.26953125 2.37890625 C15.47353492 12.88509548 19.23222661 20.20531497 24.33203125 29.09765625 C24.72100586 29.77844238 25.10998047 30.45922852 25.51074219 31.16064453 C27.94845346 35.3980958 30.44671659 39.59767033 32.95849609 43.79150391 C35.48986579 48.04164933 37.97366786 52.31934277 40.45703125 56.59765625 C40.94276611 57.42950439 41.42850098 58.26135254 41.92895508 59.1184082 C42.37392334 59.88499756 42.8188916 60.65158691 43.27734375 61.44140625 C43.67453613 62.12396484 44.07172852 62.80652344 44.48095703 63.50976562 C45.33203125 65.09765625 45.33203125 65.09765625 45.33203125 66.09765625 C37.78932927 66.4281943 30.24849969 66.65527364 22.70019531 66.81176758 C20.13503252 66.87701377 17.57035091 66.96563862 15.00683594 67.07836914 C-5.70615428 67.9661835 -5.70615428 67.9661835 -10.56866455 64.89855957 C-13.83842155 61.52980248 -15.23365053 57.47605067 -16.66796875 53.09765625 C-17.444681 51.71035026 -18.2574712 50.34156867 -19.12890625 49.01171875 C-19.76054687 47.92632812 -20.3921875 46.8409375 -21.04296875 45.72265625 C-21.69007813 44.62179688 -22.3371875 43.5209375 -23.00390625 42.38671875 C-26.63916507 35.20153582 -28.18946493 27.60055263 -26.015625 19.73828125 C-22.74751642 11.60307533 -17.50929944 5.37688974 -9.46484375 1.7890625 C-6.12718215 0.50478836 -3.55461811 -0.02264088 0 0 Z " fill="#FD76A8" transform="translate(189.66796875,79.90234375)"/>
<path d="M0 0 C25.17578753 0.27364986 25.17578753 0.27364986 34.13671875 7.79296875 C39.57517217 13.50505505 43.05225259 20.16258014 43.75 28.0625 C43.47653444 34.616558 40.61824382 39.93920641 37.41455078 45.50048828 C35.76135507 48.44513262 34.46572092 51.32087451 33.33203125 54.49926758 C31.3777551 59.41644707 29.29907574 63.74716559 25 67 C16.2180333 69.852256 6.44378891 68.58755968 -2.625 68.0625 C-5.18073896 67.97715756 -7.73675059 67.89960281 -10.29296875 67.83007812 C-16.53462479 67.64339019 -22.76604665 67.35966776 -29 67 C-25.01704891 58.78840516 -20.70977739 50.85282516 -16.0625 43 C-15.48048828 42.01 -14.89847656 41.02 -14.29882812 40 C-11.88712159 35.8976952 -9.47153201 31.79771386 -7.05004883 27.70117188 C-6.42251709 26.63447266 -5.79498535 25.56777344 -5.1484375 24.46875 C-4.57915527 23.50388672 -4.00987305 22.53902344 -3.42333984 21.54492188 C0.49657281 14.53614494 0.23099092 7.81519276 0 0 Z " fill="#FD92BB" transform="translate(306,79)"/>
<path d="M0 0 C0.33 0 0.66 0 1 0 C1.07606971 7.74122829 1.12860834 15.48236016 1.16479492 23.22387695 C1.17988057 25.85737714 1.20035166 28.49085221 1.22631836 31.12426758 C1.26271019 34.90973104 1.2797289 38.69486227 1.29296875 42.48046875 C1.30845261 43.65772018 1.32393646 44.83497162 1.33988953 46.04789734 C1.34011612 47.14866104 1.34034271 48.24942474 1.34057617 49.38354492 C1.35056892 50.83249397 1.35056892 50.83249397 1.36076355 52.31071472 C0.79268098 56.54544432 -0.85489755 58.9907847 -4.03239441 61.79121399 C-8.49537748 63.60910769 -12.70786568 63.39248611 -17.48168945 63.34057617 C-18.53580521 63.34101425 -19.58992096 63.34145233 -20.67597961 63.34190369 C-24.15526949 63.33981604 -27.63407569 63.31648542 -31.11328125 63.29296875 C-33.52751909 63.28737273 -35.94176034 63.28310266 -38.35600281 63.28010559 C-44.70677108 63.26865738 -51.05733315 63.23919008 -57.40802002 63.20599365 C-63.88982351 63.17529245 -70.37166036 63.16160013 -76.85351562 63.14648438 C-89.56911553 63.11432059 -102.28450835 63.06155254 -115 63 C-115 54.42 -115 45.84 -115 37 C-77.05 37 -39.1 37 0 37 C0 24.79 0 12.58 0 0 Z " fill="#E8B800" transform="translate(406,153)"/>
<path d="M0 0 C21.45 0 42.9 0 65 0 C65 14.52 65 29.04 65 44 C57.66087077 44.06296679 50.32272364 44.12306406 42.98355865 44.15525055 C39.56566269 44.17107151 36.14799108 44.19220217 32.73022461 44.22631836 C28.80585466 44.26524491 24.88157529 44.2797273 20.95703125 44.29296875 C19.73603226 44.30845261 18.51503326 44.32393646 17.2570343 44.33988953 C16.1162291 44.34011612 14.97542389 44.34034271 13.80004883 44.34057617 C12.79855301 44.34723801 11.79705719 44.35389984 10.76521301 44.36076355 C6.74809209 43.83666982 4.14193365 42.05476196 1.20581055 39.34277344 C-0.60262574 35.82915639 -0.36900217 32.37197637 -0.29296875 28.515625 C-0.28994751 27.7922998 -0.28692627 27.06897461 -0.28381348 26.32373047 C-0.26816586 23.63234098 -0.22628174 20.94115555 -0.1875 18.25 C-0.0946875 9.21625 -0.0946875 9.21625 0 0 Z " fill="#F9C500" transform="translate(156,146)"/>
<path d="M0 0 C22.44 0 44.88 0 68 0 C68 8.25 68 16.5 68 25 C45.56 25 23.12 25 0 25 C0 16.75 0 8.5 0 0 Z " fill="#FD3581" transform="translate(222,190)"/>
<path d="M0 0 C0.15082031 1.09441406 0.15082031 1.09441406 0.3046875 2.2109375 C2.27443252 13.13897496 7.39662669 21.5628309 13 31 C14.83991517 34.1413062 16.67470162 37.28556563 18.50854492 40.43041992 C19.72668291 42.51535591 20.94930302 44.59768149 22.17700195 46.67700195 C25.3296885 52.03312622 28.30032542 57.40116749 31 63 C5.90658751 65.37097366 5.90658751 65.37097366 -0.16015625 61.68896484 C-3.31493227 58.29402261 -4.86998314 54.25689505 -6.31298828 49.90625 C-7.28289156 47.21506139 -8.78438814 44.99033341 -10.375 42.625 C-14.74407625 35.27038832 -17.53304638 27.63281038 -16 19 C-13.79668677 12.81978452 -8.23969461 0 0 0 Z " fill="#FE92BA" transform="translate(204,83)"/>
<path d="M0 0 C2.97 0.99 5.94 1.98 9 3 C14.28 4.32 19.56 5.64 25 7 C25 23.5 25 40 25 57 C16.75 57 8.5 57 0 57 C0 38.19 0 19.38 0 0 Z " fill="#FE5694" transform="translate(225,374)"/>
<path d="M0 0 C4.85433665 1.87475671 8.17428518 5.7289438 11.8125 9.3125 C12.51826172 9.97701172 13.22402344 10.64152344 13.95117188 11.32617188 C14.61310547 11.97779297 15.27503906 12.62941406 15.95703125 13.30078125 C16.56522705 13.89028564 17.17342285 14.47979004 17.80004883 15.0871582 C19 17 19 17 18.92919922 19.4699707 C17.82095458 22.48750595 16.48837882 23.9559654 14.17578125 26.1796875 C13.39396484 26.94410156 12.61214844 27.70851563 11.80664062 28.49609375 C10.98357422 29.28113281 10.16050781 30.06617187 9.3125 30.875 C7.70207927 32.43247186 6.09396358 33.99233102 4.48828125 35.5546875 C3.71693848 36.30202148 2.9455957 37.04935547 2.15087891 37.81933594 C-0.30183202 40.30601176 -2.49927652 42.92254099 -4.62426758 45.69189453 C-6.44387951 47.4220597 -7.47833233 47.91250103 -10 48 C-12.10644531 46.46118164 -12.10644531 46.46118164 -14.328125 44.16015625 C-15.52695312 42.9371582 -15.52695312 42.9371582 -16.75 41.68945312 C-17.575 40.82255859 -18.4 39.95566406 -19.25 39.0625 C-20.09046875 38.19947266 -20.9309375 37.33644531 -21.796875 36.44726562 C-23.87617282 34.30889685 -25.94296615 32.15975911 -28 30 C-26.5778261 25.40930632 -23.99027858 22.58042157 -20.625 19.296875 C-20.09986816 18.77361633 -19.57473633 18.25035767 -19.03369141 17.71124268 C-17.92765529 16.61190359 -16.81803968 15.5161554 -15.70507812 14.42382812 C-13.99862943 12.74865455 -12.30319551 11.06293238 -10.609375 9.375 C-9.53187249 8.30666347 -8.45376811 7.23893356 -7.375 6.171875 C-6.86662598 5.66775085 -6.35825195 5.16362671 -5.83447266 4.64422607 C-2.23452451 1.11726225 -2.23452451 1.11726225 0 0 Z " fill="#11D091" transform="translate(393,77)"/>
<path d="M0 0 C0.85948746 -0.00570007 1.71897491 -0.01140015 2.60450745 -0.01727295 C4.42618574 -0.0267368 6.24788126 -0.03326241 8.06958008 -0.03710938 C10.8637459 -0.0468223 13.65717867 -0.07783508 16.45117188 -0.109375 C18.21744353 -0.11590395 19.98372046 -0.12115485 21.75 -0.125 C23.00942665 -0.1435202 23.00942665 -0.1435202 24.29429626 -0.16241455 C26.65014648 -0.15332031 26.65014648 -0.15332031 30.44140625 0.203125 C33.04654584 4.11083438 32.7350819 7.42541579 32.69140625 11.953125 C32.70300781 13.13261719 32.70300781 13.13261719 32.71484375 14.3359375 C32.71226562 15.11195312 32.7096875 15.88796875 32.70703125 16.6875 C32.70477539 17.38584961 32.70251953 18.08419922 32.70019531 18.80371094 C32.34840989 22.0653592 31.39812027 25.07266552 30.44140625 28.203125 C24.90552092 28.22777275 19.36966725 28.24595996 13.83374023 28.25805664 C11.94896895 28.26309744 10.0642016 28.26992998 8.17944336 28.27856445 C5.47638989 28.29064117 2.77338794 28.29635568 0.0703125 28.30078125 C-0.77760361 28.30594254 -1.62551971 28.31110382 -2.49913025 28.31642151 C-4.51930443 28.31661695 -6.53937309 28.26518711 -8.55859375 28.203125 C-10.33308969 26.42862906 -9.68889447 23.85295239 -9.69140625 21.453125 C-9.69269531 20.2878125 -9.69398438 19.1225 -9.6953125 17.921875 C-9.69144531 16.6946875 -9.68757813 15.4675 -9.68359375 14.203125 C-9.68746094 12.9759375 -9.69132812 11.74875 -9.6953125 10.484375 C-9.69402344 9.3190625 -9.69273437 8.15375 -9.69140625 6.953125 C-9.69027832 5.87546875 -9.68915039 4.7978125 -9.68798828 3.6875 C-9.40613696 -1.72404545 -4.27104694 0.02156669 0 0 Z " fill="#FDD302" transform="translate(286.55859375,8.796875)"/>
<path d="M0 0 C0.67885254 0.13172607 1.35770508 0.26345215 2.05712891 0.39916992 C4.46961628 6.42337532 6.1283438 12.38795167 7.55712891 18.71166992 C9.07008995 25.29035896 10.63486679 31.80255271 12.67431641 38.24291992 C13.13953408 40.86332965 12.71479677 42.84057164 12.05712891 45.39916992 C7.0139528 45.67583319 2.71547691 44.64604035 -2.06787109 43.21166992 C-9.0359431 41.19475057 -16.02584154 39.32852586 -23.06787109 37.58666992 C-23.95104004 37.36793213 -24.83420898 37.14919434 -25.74414062 36.92382812 C-27.80990128 36.41364971 -29.87631154 35.90610259 -31.94287109 35.39916992 C-32.8359375 33.33984375 -32.8359375 33.33984375 -32.94287109 30.39916992 C-31.20646978 27.71076697 -28.93612364 25.57668495 -26.65380859 23.34838867 C-25.99837067 22.68958206 -25.34293274 22.03077545 -24.66763306 21.352005 C-23.27755325 19.96222426 -21.87997226 18.57991215 -20.47558594 17.20458984 C-18.32762135 15.09624035 -16.21046894 12.96020173 -14.09521484 10.8190918 C-12.74149381 9.47293094 -11.38607908 8.12847071 -10.02880859 6.78588867 C-9.39526459 6.14536057 -8.76172058 5.50483246 -8.10897827 4.84489441 C-3.61261838 0.49001419 -3.61261838 0.49001419 0 0 Z " fill="#0DD290" transform="translate(197.94287109375,-0.399169921875)"/>
<path d="M0 0 C3.97982526 2.25159264 6.9758079 5.65351948 10.18017578 8.86914062 C10.93363281 9.59423828 11.68708984 10.31933594 12.46337891 11.06640625 C13.17042969 11.77087891 13.87748047 12.47535156 14.60595703 13.20117188 C15.25604736 13.84417236 15.9061377 14.48717285 16.57592773 15.1496582 C17.86767578 17.05664062 17.86767578 17.05664062 17.60070801 18.99728394 C16.38835757 22.4032215 13.73172232 24.6604271 11.22314453 27.16992188 C10.65694901 27.74373093 10.09075348 28.31753998 9.50740051 28.90873718 C8.31000239 30.11692592 7.10861942 31.32117663 5.90356445 32.52172852 C4.05820125 34.36611676 2.23520203 36.23080794 0.41259766 38.09765625 C-0.7534175 39.26887634 -1.92069359 40.43884272 -3.08935547 41.60742188 C-3.63429153 42.1687532 -4.1792276 42.73008453 -4.74067688 43.3084259 C-8.54161187 47.04094962 -8.54161187 47.04094962 -11.26464844 47.11328125 C-15.2444737 44.86168861 -18.24045634 41.45976177 -21.44482422 38.24414062 C-22.19828125 37.51904297 -22.95173828 36.79394531 -23.72802734 36.046875 C-24.43507813 35.34240234 -25.14212891 34.63792969 -25.87060547 33.91210938 C-26.5206958 33.26910889 -27.17078613 32.6261084 -27.84057617 31.96362305 C-29.13232422 30.05664062 -29.13232422 30.05664062 -28.86535645 28.11599731 C-27.653006 24.71005975 -24.99637075 22.45285415 -22.48779297 19.94335938 C-21.92159744 19.36955032 -21.35540192 18.79574127 -20.77204895 18.20454407 C-19.57465083 16.99635533 -18.37326785 15.79210462 -17.16821289 14.59155273 C-15.32284968 12.74716449 -13.49985047 10.88247331 -11.67724609 9.015625 C-10.51123094 7.84440491 -9.34395485 6.67443853 -8.17529297 5.50585938 C-7.6303569 4.94452805 -7.08542084 4.38319672 -6.52397156 3.80485535 C-2.72303657 0.07233163 -2.72303657 0.07233163 0 0 Z " fill="#FD5694" transform="translate(69.13232421875,194.943359375)"/>
<path d="M0 0 C0.79273315 0.00404846 1.58546631 0.00809692 2.40222168 0.01226807 C3.62274231 0.00939789 3.62274231 0.00939789 4.86791992 0.00646973 C6.58948068 0.0051078 8.31105171 0.00880479 10.03259277 0.01715088 C12.67296338 0.02785048 15.31265357 0.01725607 17.95300293 0.00445557 C19.62357735 0.00577716 21.29415135 0.00833955 22.96472168 0.01226807 C23.75745483 0.0082196 24.55018799 0.00417114 25.36694336 0 C30.95355141 0.04797279 30.95355141 0.04797279 33.18347168 2.27789307 C33.4263916 4.78399658 33.4263916 4.78399658 33.41394043 7.90679932 C33.41200684 9.02377197 33.41007324 10.14074463 33.40808105 11.29156494 C33.38971191 13.04823486 33.38971191 13.04823486 33.37097168 14.84039307 C33.37032715 16.01537354 33.36968262 17.190354 33.36901855 18.40093994 C33.32359309 27.13777166 33.32359309 27.13777166 32.18347168 28.27789307 C29.31083112 28.37896181 26.4627354 28.41758978 23.58972168 28.41070557 C22.72786255 28.41166229 21.86600342 28.41261902 20.97802734 28.41360474 C19.15213956 28.41428656 17.32624937 28.41243211 15.50036621 28.40826416 C12.6954609 28.40291593 9.89071573 28.40820906 7.08581543 28.41461182 C5.31628382 28.41395104 3.54675232 28.41266987 1.77722168 28.41070557 C0.93244263 28.4127298 0.08766357 28.41475403 -0.78271484 28.4168396 C-6.70157801 28.39284338 -6.70157801 28.39284338 -7.81652832 27.27789307 C-8.06954071 23.13827024 -8.00175381 18.98683311 -8.00402832 14.84039307 C-8.01627441 13.66927979 -8.02852051 12.4981665 -8.0411377 11.29156494 C-8.04307129 10.17459229 -8.04500488 9.05761963 -8.04699707 7.90679932 C-8.05110596 6.87627441 -8.05521484 5.84574951 -8.05944824 4.78399658 C-7.55900886 -0.37882781 -4.45245328 0.03823369 0 0 Z " fill="#05E29C" transform="translate(73.8165283203125,289.72210693359375)"/>
<path d="M0 0 C2.08886719 -0.37182617 2.08886719 -0.37182617 5 0 C7.3989817 1.91404522 9.44700103 3.76967352 11.578125 5.94921875 C12.19016785 6.55884964 12.80221069 7.16848053 13.43280029 7.79658508 C14.72299468 9.08775817 16.00698952 10.38515173 17.28515625 11.68823242 C19.24124456 13.67859116 21.22014825 15.6438909 23.203125 17.60742188 C24.45456283 18.86575918 25.70461087 20.12548051 26.953125 21.38671875 C27.54474426 21.97337814 28.13636353 22.56003754 28.74591064 23.16447449 C31.79159208 26.29875869 33.73258815 28.42886188 34 33 C30.35465107 35.39559914 27.07586737 36.69895335 22.8515625 37.75390625 C21.68109375 38.05103516 20.510625 38.34816406 19.3046875 38.65429688 C18.09039062 38.95400391 16.87609375 39.25371094 15.625 39.5625 C13.22118719 40.16730547 10.81753641 40.77275541 8.4140625 41.37890625 C7.29306152 41.65903564 6.17206055 41.93916504 5.01708984 42.2277832 C2.60489721 42.84517803 0.21551223 43.49780328 -2.171875 44.203125 C-4.944045 44.98423367 -7.1374527 45.2525777 -10 45 C-10.33 44.67 -10.66 44.34 -11 44 C-10.6363853 35.84594042 -8.31932241 28.14778684 -6.13427734 20.33178711 C-5.49520703 18.04535194 -4.86593496 15.75638967 -4.23828125 13.46679688 C-3.83649527 12.01026269 -3.4341712 10.55387681 -3.03125 9.09765625 C-2.84268433 8.41437759 -2.65411865 7.73109894 -2.45983887 7.02711487 C-1.11757187 2.23514374 -1.11757187 2.23514374 0 0 Z " fill="#F7F8FA" transform="translate(435,197)"/>
<path d="M0 0 C0.721875 0.2475 1.44375 0.495 2.1875 0.75 C3.69509476 5.63614109 4.68379656 10.39425826 5.29296875 15.4765625 C5.38129471 16.18726898 5.46962067 16.89797546 5.56062317 17.63021851 C5.7440366 19.12064332 5.9245582 20.61142664 6.10229492 22.10253906 C6.37524068 24.37700562 6.66269233 26.64933265 6.95117188 28.921875 C7.12848346 30.37749733 7.30494521 31.83322348 7.48046875 33.2890625 C7.61004219 34.30016586 7.61004219 34.30016586 7.74223328 35.33169556 C8.17059606 39.0380857 8.15400364 42.13807748 7.1875 45.75 C2.75132776 45.14847806 -1.08157441 44.02754555 -5.2421875 42.38671875 C-6.45003906 41.91169922 -7.65789062 41.43667969 -8.90234375 40.94726562 C-9.5247998 40.69887939 -10.14725586 40.45049316 -10.78857422 40.19458008 C-12.67267187 39.44341181 -14.5605432 38.70246191 -16.44921875 37.96289062 C-30.07819148 32.57081036 -30.07819148 32.57081036 -34.8125 29.75 C-35.51123047 27.6315918 -35.51123047 27.6315918 -35.8125 25.75 C-34.3898954 24.63223924 -32.96728943 23.51448024 -31.54467773 22.39672852 C-30.29416692 21.41417256 -29.04367908 20.43158736 -27.79321289 19.44897461 C-24.50980849 16.86895168 -21.22604372 14.28939048 -17.94140625 11.7109375 C-17.01255615 10.98161011 -17.01255615 10.98161011 -16.06494141 10.23754883 C-14.8837693 9.31012058 -13.70246131 8.38286536 -12.52099609 7.45581055 C-10.00530855 5.48026248 -7.5172532 3.49747516 -5.0859375 1.41796875 C-2.8125 -0.25 -2.8125 -0.25 0 0 Z " fill="#FC5795" transform="translate(442.8125,278.25)"/>
<path d="M0 0 C6.71114754 0 6.71114754 0 10.09765625 2.546875 C16.67989129 7.24511951 23.72393195 11.11915597 30.73242188 15.140625 C31.76818359 15.73875 32.80394531 16.336875 33.87109375 16.953125 C35.27766235 17.75991699 35.27766235 17.75991699 36.71264648 18.58300781 C39 20 39 20 41 22 C40.94873047 23.90869141 40.94873047 23.90869141 40 26 C37.76611328 27.73583984 37.76611328 27.73583984 34.8203125 29.4609375 C33.74523437 30.09773438 32.67015625 30.73453125 31.5625 31.390625 C30.428125 32.04546875 29.29375 32.7003125 28.125 33.375 C26.48144531 34.34566406 26.48144531 34.34566406 24.8046875 35.3359375 C21.55006781 37.24860499 18.2771876 39.12632738 15 41 C13.96584961 41.61004883 12.93169922 42.22009766 11.86621094 42.84863281 C10.8971582 43.40647461 9.92810547 43.96431641 8.9296875 44.5390625 C8.07358887 45.03873535 7.21749023 45.5384082 6.33544922 46.05322266 C4 47 4 47 0 46 C0 30.82 0 15.64 0 0 Z " fill="#01BFF9" transform="translate(85,83)"/>
<path d="M0 0 C12.21 0 24.42 0 37 0 C37 10.89 37 21.78 37 33 C27 30 27 30 24.1796875 29.0859375 C16.13412575 26.60408625 8.37684856 26.35798498 0 26 C0 17.42 0 8.84 0 0 Z " fill="#FE76A7" transform="translate(250,216)"/>
<path d="M0 0 C0.66 -0.02191406 1.32 -0.04382813 2 -0.06640625 C5.23087556 0.94955267 6.21230851 2.72884814 8 5.5625 C8.53622501 8.50567813 8.46709797 11.37995867 8.390625 14.36328125 C8.38496521 15.19965622 8.37930542 16.03603119 8.37347412 16.89775085 C8.35116268 19.55742711 8.30097788 22.21573405 8.25 24.875 C8.22992815 26.68292319 8.21167858 28.49086759 8.1953125 30.29882812 C8.15131527 34.72057611 8.08232546 39.14130625 8 43.5625 C2.72 43.5625 -2.56 43.5625 -8 43.5625 C-8.09893328 38.0815965 -8.17149865 32.60121355 -8.21972656 27.11962891 C-8.23983261 25.25527899 -8.2671218 23.39099206 -8.30175781 21.52685547 C-8.35032121 18.84587052 -8.37297838 16.16571977 -8.390625 13.484375 C-8.41127014 12.65194275 -8.43191528 11.8195105 -8.45318604 10.96185303 C-8.45542905 5.1672606 -8.45542905 5.1672606 -6.10058594 2.0402832 C-3.84463824 0.45320145 -2.73140655 -0.00533478 0 0 Z " fill="#FD3581" transform="translate(256,102.4375)"/>
<path d="M0 0 C1.58206422 0.00574487 3.16410406 0.01876032 4.74609375 0.03515625 C7.53046875 0.05578125 10.31484375 0.07640625 13.18359375 0.09765625 C13.18359375 8.67765625 13.18359375 17.25765625 13.18359375 26.09765625 C20.44359375 26.42765625 27.70359375 26.75765625 35.18359375 27.09765625 C35.18359375 27.42765625 35.18359375 27.75765625 35.18359375 28.09765625 C29.64770842 28.122304 24.11185475 28.14049121 18.57592773 28.15258789 C16.69115645 28.15762869 14.8063891 28.16446123 12.92163086 28.1730957 C10.21857739 28.18517242 7.51557544 28.19088693 4.8125 28.1953125 C3.96458389 28.20047379 3.11666779 28.20563507 2.24305725 28.21095276 C0.22288307 28.2111482 -1.79718559 28.15971836 -3.81640625 28.09765625 C-5.59090219 26.32316031 -4.94670697 23.74748364 -4.94921875 21.34765625 C-4.95050781 20.18234375 -4.95179688 19.01703125 -4.953125 17.81640625 C-4.94925781 16.58921875 -4.94539063 15.36203125 -4.94140625 14.09765625 C-4.94527344 12.87046875 -4.94914062 11.64328125 -4.953125 10.37890625 C-4.95183594 9.21359375 -4.95054687 8.04828125 -4.94921875 6.84765625 C-4.94809082 5.77 -4.94696289 4.69234375 -4.94580078 3.58203125 C-4.73523626 -0.46080751 -4.25457388 0.10886832 0 0 Z " fill="#F9C601" transform="translate(281.81640625,8.90234375)"/>
<path d="M0 0 C1.55521173 0.00031721 3.11044535 0.0116478 4.66552734 0.03173828 C5.89316299 0.03598312 5.89316299 0.03598312 7.14559937 0.04031372 C9.76436877 0.05152546 12.38279848 0.07663149 15.00146484 0.10205078 C16.77489741 0.11207931 18.54833533 0.12120538 20.32177734 0.12939453 C24.6734711 0.151468 29.02491034 0.18600434 33.37646484 0.22705078 C33.37646484 0.55705078 33.37646484 0.88705078 33.37646484 1.22705078 C22.98146484 1.72205078 22.98146484 1.72205078 12.37646484 2.22705078 C12.37646484 10.80705078 12.37646484 19.38705078 12.37646484 28.22705078 C9.59208984 28.24767578 6.80771484 28.26830078 3.93896484 28.28955078 C3.06054932 28.29865479 2.18213379 28.30775879 1.27709961 28.31713867 C-0.6899949 28.32428169 -2.65707137 28.27736971 -4.62353516 28.22705078 C-7.21308673 25.63749921 -5.80912308 18.27527476 -5.81103516 14.78955078 C-5.82328125 13.6184375 -5.83552734 12.44732422 -5.84814453 11.24072266 C-5.85007812 10.12375 -5.85201172 9.00677734 -5.85400391 7.85595703 C-5.85811279 6.82543213 -5.86222168 5.79490723 -5.86645508 4.7331543 C-5.45602532 0.49892167 -4.10830262 0.25742632 0 0 Z " fill="#13CF92" transform="translate(71.62353515625,289.77294921875)"/>
<path d="M0 0 C3.04820399 1.46603908 5.34939772 2.97384921 7.8125 5.3125 C8.43769531 5.88613281 9.06289063 6.45976563 9.70703125 7.05078125 C11 9 11 9 10.83300781 11.34521484 C9.80962986 14.60670717 8.40829979 16.05067363 5.96484375 18.42578125 C5.15595703 19.22177734 4.34707031 20.01777344 3.51367188 20.83789062 C2.66353516 21.65451172 1.81339844 22.47113281 0.9375 23.3125 C0.08349609 24.14845703 -0.77050781 24.98441406 -1.65039062 25.84570312 C-3.75821312 27.90642344 -5.87479849 29.95723209 -8 32 C-11.04820399 30.53396092 -13.34939772 29.02615079 -15.8125 26.6875 C-16.43769531 26.11386719 -17.06289063 25.54023437 -17.70703125 24.94921875 C-19 23 -19 23 -18.83300781 20.65478516 C-17.80962986 17.39329283 -16.40829979 15.94932637 -13.96484375 13.57421875 C-13.15595703 12.77822266 -12.34707031 11.98222656 -11.51367188 11.16210938 C-10.66353516 10.34548828 -9.81339844 9.52886719 -8.9375 8.6875 C-8.08349609 7.85154297 -7.22949219 7.01558594 -6.34960938 6.15429688 C-4.24178688 4.09357656 -2.12520151 2.04276791 0 0 Z " fill="#05E29B" transform="translate(401,85)"/>
<path d="M0 0 C1.4481954 2.69198405 2.37890388 5.12746923 3 8.1171875 C3.2475 9.27541016 3.2475 9.27541016 3.5 10.45703125 C3.7475 11.65392578 3.7475 11.65392578 4 12.875 C4.88771985 17.12634582 5.75347038 21.27215065 7.1484375 25.390625 C8.11930467 28.36557577 7.87252529 30.033414 7 33 C1.58563807 33.33025001 -2.92665899 32.12488466 -8.0625 30.625 C-9.24682617 30.29242188 -9.24682617 30.29242188 -10.45507812 29.953125 C-14.3992901 28.82904112 -18.22632922 27.62488037 -22 26 C-17.05366213 20.05362492 -11.71298843 14.68427045 -6.12695312 9.34179688 C-5.15725586 8.39336914 -5.15725586 8.39336914 -4.16796875 7.42578125 C-3.58297607 6.86286377 -2.9979834 6.29994629 -2.39526367 5.7199707 C-0.8506633 3.81590953 -0.40505661 2.39530242 0 0 Z " fill="#07E19C" transform="translate(203,12)"/>
<path d="M0 0 C3.07456913 1.47512158 5.34751581 2.99823629 7.8125 5.375 C8.43769531 5.96023437 9.06289062 6.54546875 9.70703125 7.1484375 C11 9 11 9 10.83300781 10.84521484 C9.73466067 13.68636722 8.13894769 15.19963163 5.96484375 17.328125 C5.15595703 18.12734375 4.34707031 18.9265625 3.51367188 19.75 C2.2384668 20.9875 2.2384668 20.9875 0.9375 22.25 C-0.34350586 23.51070312 -0.34350586 23.51070312 -1.65039062 24.796875 C-3.76035412 26.87147597 -5.87699708 28.93875832 -8 31 C-11.07456913 29.52487842 -13.34751581 28.00176371 -15.8125 25.625 C-16.43769531 25.03976563 -17.06289063 24.45453125 -17.70703125 23.8515625 C-19 22 -19 22 -18.83300781 20.15478516 C-17.73466067 17.31363278 -16.13894769 15.80036837 -13.96484375 13.671875 C-12.75151367 12.47304687 -12.75151367 12.47304687 -11.51367188 11.25 C-10.66353516 10.425 -9.81339844 9.6 -8.9375 8.75 C-8.08349609 7.90953125 -7.22949219 7.0690625 -6.34960938 6.203125 C-4.23964588 4.12852403 -2.12300292 2.06124168 0 0 Z " fill="#FD76A8" transform="translate(76,203)"/>
<path d="M0 0 C0.53365658 4.22765156 1.04967756 8.45727476 1.5625 12.6875 C1.71396484 13.88568359 1.86542969 15.08386719 2.02148438 16.31835938 C2.16005859 17.47529297 2.29863281 18.63222656 2.44140625 19.82421875 C2.57232666 20.88729248 2.70324707 21.95036621 2.83813477 23.0456543 C2.99581422 25.92360154 2.70398194 28.21780939 2 31 C-2.13585402 30.42098044 -5.74133771 29.47957878 -9.6171875 27.93359375 C-10.63554687 27.53076172 -11.65390625 27.12792969 -12.703125 26.71289062 C-13.74984375 26.29201172 -14.7965625 25.87113281 -15.875 25.4375 C-16.94492187 25.01275391 -18.01484375 24.58800781 -19.1171875 24.15039062 C-21.74694526 23.10553151 -24.37440342 22.05526218 -27 21 C-26.34 20.4740625 -25.68 19.948125 -25 19.40625 C-21.31960568 16.45426705 -17.65962443 13.4776649 -14 10.5 C-11.94370453 8.82688874 -9.88706849 7.15422681 -7.828125 5.484375 C-6.23613589 4.19173427 -4.64889806 2.89324628 -3.0625 1.59375 C-1 0 -1 0 0 0 Z " fill="#FB76A8" transform="translate(448,293)"/>
<path d="M0 0 C8.57436599 4.11905817 16.39274333 8.23320865 24 14 C23.65501413 16.75246788 23.28157377 17.76968061 21.09814453 19.55566406 C20.28458496 20.03745117 19.47102539 20.51923828 18.6328125 21.015625 C17.74722656 21.54414062 16.86164063 22.07265625 15.94921875 22.6171875 C15.01722656 23.15601562 14.08523437 23.69484375 13.125 24.25 C12.20074219 24.80429688 11.27648437 25.35859375 10.32421875 25.9296875 C3.41671798 30 3.41671798 30 0 30 C0 20.1 0 10.2 0 0 Z " fill="#03CEFA" transform="translate(102,91)"/>
<path d="M0 0 C2.94008994 1.60568503 5.09078242 3.22340942 7 6 C7.40088817 10.45494031 6.76706447 14.61068663 6 19 C5.814375 20.1240625 5.62875 21.248125 5.4375 22.40625 C5.2209375 23.69015625 5.2209375 23.69015625 5 25 C4.67 25 4.34 25 4 25 C3.32391731 22.14777615 2.65894885 19.29368707 2 16.4375 C1.80921875 15.63763672 1.6184375 14.83777344 1.421875 14.01367188 C0.32538878 9.21654468 -0.21132197 4.91983966 0 0 Z " fill="#FDA3C6" transform="translate(223,314)"/>
</svg>
