<?xml version="1.0" encoding="UTF-8"?>
<svg version="1.1" xmlns="http://www.w3.org/2000/svg" width="512" height="512">
<path d="M0 0 C1.47406087 -0.00346162 2.94811915 -0.00822956 4.42217207 -0.01418173 C8.45070554 -0.02665217 12.47902455 -0.02053949 16.50755858 -0.01122308 C20.86073078 -0.00441664 25.2138669 -0.01492171 29.56703186 -0.02316284 C38.08617311 -0.03648537 46.60523495 -0.03362903 55.12437928 -0.02492492 C62.04959585 -0.01814296 68.97479021 -0.01723387 75.90000916 -0.02049637 C77.37985191 -0.02118592 77.37985191 -0.02118592 78.88959047 -0.0218894 C80.89392683 -0.0228486 82.89826317 -0.02382124 84.90259951 -0.02480717 C103.68634851 -0.03335673 122.47005354 -0.02353374 141.25379533 -0.00740607 C157.3624562 0.00599671 173.47105221 0.0036685 189.57971191 -0.01016235 C208.29738511 -0.02622583 227.01501979 -0.0325328 245.73269892 -0.02332556 C247.72955989 -0.02236994 249.72642087 -0.02142683 251.72328186 -0.02049637 C253.19692741 -0.01980213 253.19692741 -0.01980213 254.70034358 -0.01909386 C261.61525617 -0.01650628 268.5301443 -0.02086998 275.4450531 -0.02793503 C283.87485957 -0.03635874 292.30458227 -0.03405155 300.73437917 -0.0180928 C305.03335007 -0.01022183 309.33218141 -0.00709843 313.6311512 -0.01704025 C317.57030653 -0.02601203 321.50919357 -0.02101367 325.44832474 -0.0051076 C326.86945681 -0.00177027 328.29061178 -0.00343015 329.71172899 -0.01073496 C344.27148247 -0.07980475 355.64092172 3.0195096 366.56164551 13.00595093 C375.4124968 22.35846991 378.64716083 34.1917728 378.53869629 46.73446655 C378.53898834 47.63296326 378.5392804 48.53145996 378.5395813 49.45718384 C378.5381979 52.40062419 378.52268361 55.34380529 378.50695801 58.28720093 C378.50322436 60.33842836 378.50037905 62.38965759 378.49838257 64.44088745 C378.49077385 69.81996652 378.4711492 75.1989363 378.44897461 80.57797241 C378.42845654 86.07478355 378.41936813 91.57161247 378.40930176 97.06845093 C378.3879006 107.83933208 378.35379817 118.61013239 378.31164551 129.38095093 C377.10145752 129.56923462 377.10145752 129.56923462 375.86682129 129.76132202 C374.79931641 129.93228394 373.73181152 130.10324585 372.63195801 130.27938843 C371.57766602 130.44616089 370.52337402 130.61293335 369.43713379 130.78475952 C358.50550606 132.86998331 349.33455059 138.69412573 342.87414551 147.81845093 C340.24139081 152.12456666 338.59745951 156.5159681 337.31164551 161.38095093 C336.97133301 162.58751343 336.97133301 162.58751343 336.62414551 163.81845093 C334.9578418 177.48214135 338.81809348 188.30219795 346.43664551 199.50595093 C353.63500854 207.60693002 363.96654194 211.63103624 374.47302246 212.91268921 C375.73976807 213.06721558 377.00651367 213.22174194 378.31164551 213.38095093 C378.40468761 225.15167355 378.47558332 236.9223074 378.5188942 248.69332409 C378.53969052 254.16021484 378.56786164 259.62685236 378.61340332 265.09359741 C378.65714624 270.378024 378.68084231 275.66220835 378.69115448 280.94680214 C378.69849509 282.95405193 378.71282835 284.96128978 378.73456573 286.96843529 C378.89129571 302.05225328 378.2201462 315.13394764 368.31164551 327.38095093 C367.83340332 327.99454468 367.35516113 328.60813843 366.86242676 329.24032593 C360.90766105 336.02005918 351.18184785 340.98344895 342.31164551 342.38095093 C340.2608113 342.4721541 338.20738313 342.51175991 336.1545248 342.515172 C334.90839773 342.51962985 333.66227065 342.52408769 332.37838215 342.52868062 C330.99826204 342.52859133 329.61814193 342.5284015 328.23802185 342.52812195 C326.76970417 342.5314225 325.30138739 342.53514848 323.83307177 342.53926343 C319.79717265 342.54926975 315.7612884 342.55299802 311.72537863 342.55565274 C307.37277002 342.55955984 303.02017314 342.56913789 298.66757202 342.5778656 C288.15560506 342.59761835 277.64363714 342.60769464 267.13165626 342.61659339 C262.17961858 342.62097817 257.22758196 342.62634448 252.27554512 342.63158226 C235.81092393 342.64859322 219.3463034 342.66308706 202.88167477 342.670331 C198.61004066 342.67224085 194.33840655 342.67416119 190.06677246 342.67611694 C189.00509822 342.67660068 187.94342398 342.67708442 186.84957779 342.67758282 C169.65377549 342.68588193 152.45804278 342.71121744 135.26227086 342.74369762 C117.60221943 342.77678244 99.94220335 342.79478104 82.28212076 342.79797524 C72.36887805 342.800139 62.45573682 342.80886805 52.54252434 342.83443642 C44.09947597 342.85616281 35.65655374 342.86418427 27.21348058 342.85446963 C22.90816906 342.84993059 18.60311772 342.85178806 14.29784203 342.87123108 C10.35031346 342.88890398 6.40323407 342.88783194 2.45570046 342.87233379 C1.03370224 342.86996395 -0.38832742 342.87424869 -1.81027771 342.88616244 C-15.71230598 342.99535037 -27.55737076 340.05530333 -37.84460449 330.34579468 C-47.79859888 319.81610286 -51.04245478 308.21832746 -50.91540527 293.98397827 C-50.91569733 293.10469666 -50.91598938 292.22541504 -50.91629028 291.31948853 C-50.91491184 288.45185001 -50.89942158 285.5844808 -50.88366699 282.71688843 C-50.87993157 280.71336 -50.8770871 278.70982974 -50.87509155 276.70629883 C-50.86749678 271.46205501 -50.84788444 266.21792397 -50.82568359 260.97372437 C-50.80513515 255.61078415 -50.79607068 250.24782551 -50.78601074 244.88485718 C-50.76463426 234.38350585 -50.73054908 223.88223781 -50.68835449 213.38095093 C-49.8822876 213.25615356 -49.0762207 213.1313562 -48.24572754 213.0027771 C-47.17878662 212.83237915 -46.1118457 212.6619812 -45.01257324 212.48641968 C-43.95900635 212.32037231 -42.90543945 212.15432495 -41.81994629 211.98324585 C-31.05526102 209.91288812 -22.51719399 204.46034482 -15.87585449 195.75595093 C-9.20717679 185.52030608 -6.95155755 174.03410495 -9.34851074 162.09188843 C-12.77443244 149.42635972 -19.54618782 140.76167264 -30.80554199 134.13485718 C-35.2637118 131.90577227 -39.56037361 130.98567865 -44.48522949 130.27548218 C-45.64893066 130.10508423 -46.81263184 129.93468628 -48.01159668 129.75912476 C-48.89492676 129.63432739 -49.77825684 129.50953003 -50.68835449 129.38095093 C-50.75811023 117.85369605 -50.81129508 106.32649205 -50.84379101 94.79906845 C-50.85939369 89.44542696 -50.88053262 84.09193072 -50.91467285 78.7383728 C-50.94745972 73.56418699 -50.96524802 68.39014021 -50.97298622 63.21585846 C-50.97849522 61.24966496 -50.9892522 59.28347838 -51.00554466 57.31734467 C-51.14639922 39.60198152 -49.75475937 25.11455089 -37.17663574 11.71298218 C-26.38520867 1.59919574 -14.27395956 -0.07337081 0 0 Z M66.31164551 80.38095093 C59.87033782 90.94154704 57.34056857 101.29147043 59.99523926 113.53329468 C63.26308938 123.2012496 69.48010925 131.75676305 78.61633301 136.60360718 C88.15511103 140.96642532 97.97574274 142.17182392 108.12414551 138.75595093 C118.15874082 134.59917816 125.47395719 127.69884776 130.18664551 117.94345093 C133.80431719 108.55864678 133.85776289 98.44934577 130.37414551 89.00595093 C125.21983086 78.33434172 117.38988642 71.52062686 106.48742676 67.28329468 C91.14125207 62.92294246 76.37678764 68.42077316 66.31164551 80.38095093 Z M235.91549528 67.52870417 C235.3724952 68.07246368 234.82949513 68.61622319 234.27004051 69.17646027 C233.64253061 69.79998807 233.0150207 70.42351588 232.36849535 71.06593847 C231.33251425 72.11065809 231.33251425 72.11065809 230.27560425 73.17648315 C229.54293953 73.90743903 228.8102748 74.6383949 228.05540812 75.39150095 C225.58313606 77.86045906 223.11811481 80.33653444 220.6529541 82.81259155 C218.88956409 84.57654526 217.12573445 86.34005957 215.36149597 88.10316467 C211.55471931 91.9094848 207.75104215 95.71886226 203.9501152 99.53102112 C198.45455766 105.04280773 192.95350952 110.54908714 187.45108993 116.05402237 C178.52471693 124.98477656 169.60282273 133.91999133 160.68371582 142.85800171 C152.01776 151.54230538 143.34971366 160.22451358 134.67883301 168.90390015 C134.14468625 169.43857235 133.61053948 169.97324456 133.06020646 170.52411896 C130.38063336 173.20630207 127.70101895 175.88844391 125.021384 178.57056522 C102.77839618 200.83429873 80.54273951 223.10534073 58.31164551 245.38095093 C59.25038821 246.48615667 60.19058656 247.59012609 61.13137817 248.69358826 C61.91649749 249.61595071 61.91649749 249.61595071 62.7174778 250.55694675 C65.08019299 253.26030245 67.59657488 255.79018919 70.14758301 258.31454468 C70.9339061 259.09874535 70.9339061 259.09874535 71.7361145 259.89878845 C73.38392421 261.54107438 75.03520452 263.17981743 76.68664551 264.81845093 C77.81578506 265.94256559 78.94469328 267.06691266 80.07336426 268.1914978 C82.81679739 270.92400328 85.56334536 273.65334101 88.31164551 276.38095093 C91.15765886 275.08716039 93.21322813 273.72790445 95.41648865 271.51661682 C96.29738411 270.63984535 96.29738411 270.63984535 97.19607544 269.74536133 C97.82839081 269.10585541 98.46070618 268.46634949 99.11218262 267.8074646 C99.7874852 267.13245407 100.46278778 266.45744354 101.15855408 265.76197815 C103.39013904 263.52899987 105.61455276 261.2890173 107.83898926 259.04891968 C109.39027417 257.49390262 110.94200273 255.93932803 112.49415588 254.38517761 C116.58193697 250.28975919 120.66368182 246.18837548 124.74420166 242.08572388 C128.88744288 237.92209 133.0362841 233.76404491 137.18469238 229.6055603 C143.89081677 222.88185389 150.59348224 216.15472249 157.29168701 209.42312622 C160.62722149 206.07125378 163.96669469 202.72343289 167.31164551 199.38095093 C168.80288598 197.88980004 170.29407522 196.39859793 171.78523254 194.90736389 C204.29403687 162.39855957 236.80284119 129.88975525 269.31164551 97.38095093 C268.37212302 96.27584528 267.43129282 95.17185133 266.4899292 94.0683136 C265.96614811 93.45340529 265.44236702 92.83849699 264.90271378 92.2049551 C262.55467987 89.51316385 260.06807088 86.97516197 257.54602051 84.44735718 C257.02654846 83.92455673 256.50707642 83.40175629 255.97186279 82.8631134 C254.88753029 81.77376972 253.80188791 80.68572837 252.71496582 79.59896851 C251.04637557 77.9281607 249.38598403 76.24946921 247.72570801 74.57040405 C246.66630063 73.50806776 245.60642209 72.44620107 244.54602051 71.38485718 C244.0501947 70.88184586 243.5543689 70.37883453 243.04351807 69.86058044 C239.85315627 66.19772228 239.85315627 66.19772228 235.91549528 67.52870417 Z M203.06164551 215.69345093 C195.65673099 224.77304638 194.4541564 235.01620088 195.31164551 246.38095093 C197.58605118 256.63527134 203.53668071 265.54740692 212.31164551 271.38095093 C221.70818933 276.76054324 231.69679117 278.35740192 242.27648926 275.61141968 C253.44176604 271.39715731 261.26997168 264.42884126 266.36633301 253.71298218 C269.73091426 245.41275487 269.81458475 234.12429659 266.56164551 225.75595093 C261.06278965 214.2792448 254.11120816 207.92791616 242.31164551 203.38095093 C227.6429559 198.49138773 213.0382157 204.94562468 203.06164551 215.69345093 Z " fill="#E3D8F8" transform="translate(91.6883544921875,84.61904907226563)"/>
</svg>
